<svg width="76" height="76" viewBox="0 0 76 76" fill="none" xmlns="http://www.w3.org/2000/svg">
<rect x="0.499512" y="0.73584" width="75" height="75" rx="37.5" fill="#446489"/>
<g clip-path="url(#clip0_6_632)">
<path d="M41.725 46.992C40.7654 46.0324 39.204 46.0324 38.2445 46.992L35.9833 49.2531C35.9383 49.2981 35.8758 49.3185 35.8162 49.3086C32.8475 48.7971 30.871 47.1876 29.9572 46.2737C27.8379 44.1545 27.1468 41.6957 26.9235 40.4187C26.9126 40.3564 26.933 40.2924 26.978 40.2475L29.239 37.9865C30.1944 37.0395 30.1828 35.4405 29.239 34.5059L25.9794 31.2463C25.0198 30.2867 23.4584 30.2866 22.4988 31.2463L19.9511 33.794C18.1501 35.5949 17.529 38.3043 18.3687 40.6963C19.7806 44.7184 22.0066 48.2678 24.985 51.2461C26.7397 53.0009 28.7257 54.5148 30.8876 55.7458C31.1688 55.9061 31.5266 55.8078 31.6868 55.5265C31.8469 55.2452 31.7488 54.8875 31.4675 54.7273C29.3967 53.5482 27.4944 52.0981 25.8137 50.4173C22.9606 47.5642 20.8278 44.163 19.4746 40.308C18.7832 38.3385 19.2955 36.1068 20.7798 34.6226L23.3275 32.0749C23.8213 31.5749 24.6556 31.5753 25.1507 32.0749L28.4103 35.3345C28.9129 35.8372 28.9129 36.655 28.4103 37.1577L26.1493 39.4187C25.8347 39.7333 25.6925 40.1826 25.7691 40.6206C26.0162 42.0339 26.7814 44.7552 29.1286 47.1024C30.1407 48.1146 32.3296 49.8971 35.6174 50.4636C36.0516 50.538 36.4984 50.3957 36.8122 50.0818L39.0733 47.8207C39.576 47.3182 40.3938 47.3178 40.8964 47.8207L44.1561 51.0804C44.6519 51.5713 44.655 52.4101 44.1561 52.9036L41.6084 55.4513C40.1241 56.9356 37.8924 57.4477 35.923 56.7566C35.2248 56.5115 34.5277 56.2343 33.851 55.9328C33.5554 55.8011 33.2089 55.9341 33.0772 56.2296C32.9455 56.5252 33.0784 56.8717 33.374 57.0033C34.0798 57.3177 34.8068 57.6068 35.5348 57.8624C37.9153 58.6982 40.6318 58.0856 42.4371 56.28L44.9848 53.7323C45.9402 52.7854 45.9282 51.1859 44.9848 50.2516L41.725 46.992ZM54.8418 21.1607C52.2143 18.6119 48.3746 17.6384 44.8211 18.62C44.5091 18.7062 44.3261 19.0289 44.4123 19.3409C44.4985 19.6529 44.8211 19.8357 45.1332 19.7497C48.2879 18.8783 51.6954 19.7413 54.0258 22.0019C55.8135 23.736 56.8084 26.0613 56.8273 28.5492C56.8462 31.0377 55.8877 33.3772 54.1282 35.1367C52.6992 36.5656 50.8892 37.4682 48.8937 37.7468C46.9623 38.0166 44.9581 37.6594 43.2504 36.7414C42.9925 36.6029 42.6872 36.576 42.4125 36.6679L38.1302 38.1007L39.5632 33.8182C39.655 33.5438 39.6282 33.2386 39.4897 32.9808C38.5652 31.261 38.2101 29.2434 38.4895 27.2998C38.7784 25.2903 39.6992 23.4733 41.1523 22.0451C41.6488 21.5571 42.1997 21.1266 42.7897 20.7655C43.0657 20.5965 43.1525 20.2358 42.9835 19.9598C42.8145 19.6838 42.4538 19.597 42.1778 19.766C41.5121 20.1735 40.8907 20.6592 40.3308 21.2093C38.6931 22.819 37.6552 24.8673 37.3294 27.133C37.0167 29.3075 37.4096 31.5649 38.4355 33.4949L36.9442 37.9518C36.8164 38.3336 36.9139 38.7477 37.1986 39.0324C37.4849 39.3187 37.9019 39.4133 38.2791 39.2868L42.736 37.7955C44.6527 38.8145 46.895 39.209 49.0556 38.9076C51.3056 38.5934 53.3463 37.5761 54.9569 35.9655C56.9401 33.9823 58.0206 31.3453 57.9992 28.5404C57.9779 25.7359 56.8566 23.1151 54.8418 21.1607ZM48.4072 22.8748H46.8198C46.2049 22.8748 45.7047 23.3751 45.7047 23.99V26.7112H42.9834C42.3685 26.7112 41.8683 27.2115 41.8683 27.8263V29.4137C41.8683 30.0286 42.3686 30.5288 42.9834 30.5288H45.7046V33.2501C45.7046 33.865 46.2049 34.3652 46.8197 34.3652H48.4071C49.0221 34.3652 49.5223 33.8649 49.5223 33.2501V30.5288H52.2436C52.8585 30.5288 53.3587 30.0286 53.3587 29.4137V27.8263C53.3587 27.2114 52.8585 26.7112 52.2436 26.7112H49.5223V23.99C49.5224 23.3751 49.0221 22.8748 48.4072 22.8748ZM52.1868 27.8832V29.3569H49.201C48.7319 29.3569 48.3504 29.7385 48.3504 30.2075V33.1933H46.8766V30.2075C46.8766 29.7385 46.4951 29.3569 46.026 29.3569H43.0403V27.8832H46.026C46.4951 27.8832 46.8766 27.5017 46.8766 27.0326V24.0468H48.3504V27.0326C48.3504 27.5017 48.7319 27.8832 49.201 27.8832H52.1868Z" fill="white"/>
</g>
<defs>
<clipPath id="clip0_6_632">
<rect width="40" height="40" fill="white" transform="translate(17.9995 18.2358)"/>
</clipPath>
</defs>
</svg>
