<svg width="76" height="76" viewBox="0 0 76 76" fill="none" xmlns="http://www.w3.org/2000/svg">
<rect x="0.499756" y="0.73584" width="75" height="75" rx="37.5" fill="#446489"/>
<path d="M44.8367 17.2361C44.8367 17.2361 55.57 19.7922 59 31.8224" stroke="white" stroke-miterlimit="10" stroke-linecap="round" stroke-linejoin="round"/>
<path d="M43.5063 22.4421C43.5063 22.4421 51.4164 24.9983 53.7964 32.9715" stroke="white" stroke-miterlimit="10" stroke-linecap="round" stroke-linejoin="round"/>
<path d="M42.5264 27.2964C42.5264 27.2964 47.403 29.6884 48.663 33.9329" stroke="white" stroke-miterlimit="10" stroke-linecap="round" stroke-linejoin="round"/>
<path d="M42.0831 34.1206C46.9364 38.9984 46.9598 42.9146 46.9598 42.9146L44.8131 45.0721C44.5564 45.33 44.1598 45.4004 43.8331 45.2128C42.1064 44.2278 38.4431 44.392 37.9764 44.8845C37.4398 45.4238 37.9764 44.8845 37.9764 44.8845L28.1764 54.7337C27.9431 54.9682 27.6164 55.1089 27.2664 55.1089L20.8264 55.4841L21.1531 48.9649C21.1764 48.66 21.3164 48.3786 21.5264 48.1441L31.3731 38.248C31.3731 38.248 30.8131 38.8108 31.3731 38.248C31.8631 37.7555 32.0264 34.0737 31.0464 32.3619C30.8597 32.057 30.9298 31.6349 31.1864 31.3769L33.3331 29.2195C33.3564 29.2429 37.2298 29.2429 42.0831 34.1206Z" stroke="white" stroke-miterlimit="10" stroke-linecap="round" stroke-linejoin="round"/>
<path d="M33.8465 42.3047L31.0232 45.1422" stroke="white" stroke-miterlimit="10" stroke-linecap="round" stroke-linejoin="round"/>
<path d="M20.8498 55.4836L16.9998 59.2358" stroke="white" stroke-miterlimit="10" stroke-linecap="round" stroke-linejoin="round"/>
</svg>
