<svg width="76" height="76" viewBox="0 0 76 76" fill="none" xmlns="http://www.w3.org/2000/svg">
<rect x="0.500244" y="0.73584" width="75" height="75" rx="37.5" fill="#446489"/>
<g clip-path="url(#clip0_7_17)">
<path d="M52.7455 41.8405C52.7455 41.259 52.2899 40.7858 51.7299 40.7858H48.495C47.9349 40.7858 47.4793 41.259 47.4793 41.8405V45.1999C47.4793 45.7815 47.9349 46.2546 48.495 46.2546H51.7299C52.2899 46.2546 52.7455 45.7815 52.7455 45.1999V41.8405ZM51.6171 45.0827H48.6078V41.9577H51.6171V45.0827ZM55.5667 46.8531C55.8783 46.8531 56.131 46.5908 56.131 46.2672V23.5178C56.131 21.9068 54.8689 20.5962 53.3176 20.5962H52.081C51.8172 19.2514 50.6638 18.2358 49.2849 18.2358C47.906 18.2358 46.7526 19.2514 46.4888 20.5962H44.5579C44.294 19.2514 43.1407 18.2358 41.7617 18.2358C40.3828 18.2358 39.2295 19.2514 38.9656 20.5962H37.0347C36.7709 19.2514 35.6175 18.2358 34.2386 18.2358C32.8597 18.2358 31.7063 19.2514 31.4425 20.5962H29.5116C29.2477 19.2514 28.0944 18.2358 26.7155 18.2358C25.3365 18.2358 24.1832 19.2514 23.9193 20.5962H22.6827C21.1315 20.5962 19.8694 21.9068 19.8694 23.5178V55.3143C19.8694 56.9252 21.1315 58.2358 22.6827 58.2358H53.3175C54.8689 58.2358 56.131 56.9252 56.131 55.3143V49.0016C56.131 48.678 55.8783 48.4157 55.5667 48.4157C55.2551 48.4157 55.0025 48.678 55.0025 49.0016V55.3143C55.0025 56.2791 54.2466 57.064 53.3176 57.064H22.6827C21.7537 57.064 20.9979 56.279 20.9979 55.3143V28.8046H23.8477C24.1593 28.8046 24.4119 28.5422 24.4119 28.2187C24.4119 27.8951 24.1593 27.6327 23.8477 27.6327H20.9979V23.5178C20.9979 22.5529 21.7537 21.7681 22.6827 21.7681H23.9193C24.1832 23.1129 25.3365 24.1284 26.7155 24.1284C27.0271 24.1284 27.2797 23.8661 27.2797 23.5425C27.2797 23.2189 27.0271 22.9565 26.7155 22.9565C25.964 22.9565 25.3238 22.4594 25.088 21.7681H31.4425C31.7063 23.1129 32.8597 24.1284 34.2386 24.1284C34.5502 24.1284 34.8028 23.8661 34.8028 23.5425C34.8028 23.2189 34.5502 22.9565 34.2386 22.9565C33.4872 22.9565 32.847 22.4594 32.6112 21.7681H38.9656C39.2295 23.1129 40.3828 24.1284 41.7617 24.1284C42.0734 24.1284 42.326 23.8661 42.326 23.5425C42.326 23.2189 42.0734 22.9565 41.7617 22.9565C41.0103 22.9565 40.3701 22.4594 40.1343 21.7681H46.4888C46.7526 23.1129 47.906 24.1284 49.2849 24.1284C49.5965 24.1284 49.8491 23.8661 49.8491 23.5425C49.8491 23.2189 49.5965 22.9565 49.2849 22.9565C48.5335 22.9565 47.8933 22.4594 47.6575 21.7681H53.3176C54.2467 21.7681 55.0025 22.553 55.0025 23.5178V27.6327H26.4808C26.1692 27.6327 25.9166 27.8951 25.9166 28.2187C25.9166 28.5422 26.1692 28.8046 26.4808 28.8046H55.0025V46.2672C55.0025 46.5908 55.2551 46.8531 55.5667 46.8531ZM25.088 20.5962C25.3238 19.9049 25.964 19.4077 26.7155 19.4077C27.4669 19.4077 28.1071 19.9049 28.3429 20.5962H25.088ZM32.6112 20.5962C32.847 19.9049 33.4872 19.4077 34.2386 19.4077C34.99 19.4077 35.6302 19.9049 35.866 20.5962H32.6112ZM40.1343 20.5962C40.3701 19.9049 41.0103 19.4077 41.7617 19.4077C42.5132 19.4077 43.1534 19.9049 43.3892 20.5962H40.1343ZM47.6575 20.5962C47.8933 19.9049 48.5335 19.4077 49.2849 19.4077C50.0363 19.4077 50.6765 19.9049 50.9123 20.5962H47.6575ZM51.7299 49.2515H48.495C47.9349 49.2515 47.4793 49.7246 47.4793 50.3062V53.6655C47.4793 54.2471 47.9349 54.7202 48.495 54.7202H51.7299C52.2899 54.7202 52.7455 54.2471 52.7455 53.6655V50.3062C52.7455 49.7246 52.2899 49.2515 51.7299 49.2515ZM51.6171 53.5483H48.6078V50.4233H51.6171V53.5483ZM52.7455 32.203C52.7455 31.6215 52.2899 31.1483 51.7299 31.1483H48.495C47.9349 31.1483 47.4793 31.6215 47.4793 32.203V35.5624C47.4793 36.144 47.9349 36.6171 48.495 36.6171H51.7299C52.2899 36.6171 52.7455 36.144 52.7455 35.5624V32.203ZM51.6171 35.4452H48.6078V32.3202H51.6171V35.4452ZM28.521 32.203C28.521 31.6215 28.0654 31.1483 27.5054 31.1483H24.2704C23.7104 31.1483 23.2548 31.6215 23.2548 32.203V35.5624C23.2548 36.144 23.7104 36.6171 24.2704 36.6171H27.5054C28.0654 36.6171 28.521 36.144 28.521 35.5624V32.203ZM27.3925 35.4452H24.3833V32.3202H27.3925V35.4452ZM28.521 41.8405C28.521 41.259 28.0654 40.7858 27.5054 40.7858H24.2704C23.7104 40.7858 23.2548 41.259 23.2548 41.8405V45.1999C23.2548 45.7815 23.7104 46.2546 24.2704 46.2546H27.5054C28.0654 46.2546 28.521 45.7815 28.521 45.1999V41.8405ZM27.3925 45.0827H24.3833V41.9577H27.3925V45.0827ZM27.5054 49.2515H24.2704C23.7104 49.2515 23.2548 49.7246 23.2548 50.3062V53.6655C23.2548 54.2471 23.7104 54.7202 24.2704 54.7202H27.5054C28.0654 54.7202 28.521 54.2471 28.521 53.6655V50.3062C28.521 49.7246 28.0654 49.2515 27.5054 49.2515ZM27.3925 53.5483H24.3833V50.4233H27.3925V53.5483ZM42.4583 41.0255H39.8382V38.3046C39.8382 37.6897 39.3564 37.1896 38.7645 37.1896H37.236C36.6439 37.1896 36.1623 37.6898 36.1623 38.3046V41.0255H33.5421C32.95 41.0255 32.4684 41.5258 32.4684 42.1405V43.7279C32.4684 44.3427 32.9501 44.8429 33.5421 44.8429H36.1623V47.5638C36.1623 48.1787 36.644 48.6788 37.236 48.6788H38.7645C39.3565 48.6788 39.8382 48.1787 39.8382 47.5638V44.8429H42.4583C43.0504 44.8429 43.532 44.3426 43.532 43.7279V42.1405C43.5321 41.5258 43.0504 41.0255 42.4583 41.0255ZM42.4036 43.6711H39.5287C39.0771 43.6711 38.7098 44.0526 38.7098 44.5215V47.507H37.2907V44.5215C37.2907 44.0526 36.9234 43.6711 36.4718 43.6711H33.5969V42.1974H36.4718C36.9234 42.1974 37.2907 41.8159 37.2907 41.3469V38.3615H38.7098V41.3469C38.7098 41.8159 39.0771 42.1974 39.5287 42.1974H42.4036V43.6711ZM46.0797 42.9343C46.0797 40.4175 45.0068 38.1562 43.3113 36.6171H43.6553C44.2153 36.6171 44.671 36.144 44.671 35.5624V32.203C44.671 31.6215 44.2153 31.1483 43.6553 31.1483H40.4204C39.8603 31.1483 39.4047 31.6215 39.4047 32.203V34.6713C38.9485 34.5879 38.4792 34.5441 38.0002 34.5441C37.5212 34.5441 37.052 34.5879 36.5956 34.6713V32.203C36.5956 31.6215 36.14 31.1483 35.58 31.1483H32.345C31.785 31.1483 31.3294 31.6215 31.3294 32.203V35.5624C31.3294 36.144 31.785 36.6171 32.345 36.6171H32.6891C30.9936 38.1562 29.9207 40.4175 29.9207 42.9343C29.9207 45.4511 30.9936 47.7123 32.6891 49.2515H32.345C31.785 49.2515 31.3294 49.7246 31.3294 50.3062V53.6655C31.3294 54.2471 31.785 54.7202 32.345 54.7202H35.58C36.14 54.7202 36.5956 54.2471 36.5956 53.6655V51.1972C37.0519 51.2806 37.5212 51.3244 38.0002 51.3244C38.4792 51.3244 38.9484 51.2806 39.4047 51.1972V53.6655C39.4047 54.2471 39.8603 54.7202 40.4204 54.7202H43.6553C44.2153 54.7202 44.671 54.2471 44.671 53.6655V50.3062C44.671 49.7246 44.2153 49.2515 43.6553 49.2515H43.3113C45.0068 47.7123 46.0797 45.4511 46.0797 42.9343ZM40.5332 32.3202H43.5425V35.4452H41.6401C41.2853 35.2585 40.9155 35.0983 40.5332 34.9669V32.3202ZM32.4579 35.4452V32.3202H35.4671V34.9669C35.0848 35.0983 34.715 35.2585 34.3602 35.4452H32.4579ZM35.4671 53.5483H32.4579V50.4233H34.3602C34.715 50.6101 35.0848 50.7702 35.4671 50.9016V53.5483ZM43.5425 50.4233V53.5483H40.5332V50.9016C40.9155 50.7702 41.2853 50.6101 41.6401 50.4233H43.5425ZM38.0002 50.1526C34.2322 50.1526 31.0492 46.9775 31.0492 42.9343C31.0492 38.8917 34.2356 35.7159 38.0002 35.7159C41.7535 35.7159 44.9512 38.7779 44.9512 42.9343C44.9512 46.9928 41.7688 50.1526 38.0002 50.1526Z" fill="white"/>
</g>
<defs>
<clipPath id="clip0_7_17">
<rect width="38.5185" height="40" fill="white" transform="translate(18.741 18.2358)"/>
</clipPath>
</defs>
</svg>
