<svg width="76" height="76" viewBox="0 0 76 76" fill="none" xmlns="http://www.w3.org/2000/svg">
<rect x="0.500244" y="0.73584" width="75" height="75" rx="37.5" fill="#446489"/>
<g clip-path="url(#clip0_7_24)">
<path d="M38.0001 53.5483C37.6641 53.5483 37.3916 53.8107 37.3916 54.1343C37.3916 54.4579 37.6641 54.7202 38.0001 54.7202C38.3361 54.7202 38.6086 54.4579 38.6086 54.1343C38.6086 53.8107 38.3361 53.5483 38.0001 53.5483ZM38.0001 50.0327C37.6641 50.0327 37.3916 50.2951 37.3916 50.6187C37.3916 50.9422 37.6641 51.2046 38.0001 51.2046C38.3361 51.2046 38.6086 50.9422 38.6086 50.6187C38.6086 50.2951 38.3361 50.0327 38.0001 50.0327ZM38.0001 57.064C37.6641 57.064 37.3916 57.3263 37.3916 57.6499C37.3916 57.9735 37.6641 58.2358 38.0001 58.2358C38.3361 58.2358 38.6086 57.9735 38.6086 57.6499C38.6086 57.3263 38.3361 57.064 38.0001 57.064ZM49.9539 45.043L47.2455 44.1654C48.7427 43.1384 49.6812 41.4529 49.6812 39.6336C49.6851 39.6261 49.6812 29.4844 49.6812 29.4844C49.6812 26.4808 48.4662 23.6562 46.2602 21.531C44.0537 19.4061 41.1202 18.2358 38.0001 18.2358C35.996 18.2358 34.0188 18.7329 32.2821 19.6735C31.9892 19.8321 31.8853 20.1894 32.05 20.4714C32.2146 20.7535 32.5857 20.8534 32.8785 20.6949C34.4335 19.8529 36.2045 19.4077 38.0001 19.4077C40.7951 19.4077 43.423 20.456 45.3996 22.3594C47.3759 24.2633 48.4642 26.7936 48.4642 29.4843V29.4869C48.1108 29.2916 47.7019 29.1793 47.2661 29.1793H46.6814C45.0534 28.9101 43.4567 28.4658 41.9349 27.8576C40.7767 27.3947 39.6512 26.8322 38.5897 26.186C38.2179 25.9596 37.7329 25.9806 37.3829 26.2383C36.5548 26.8474 35.6606 27.3742 34.7249 27.8039C33.0438 28.5759 31.2348 29.0385 29.348 29.1793H28.7342C28.2983 29.1793 27.8895 29.2916 27.5361 29.4869V29.4843C27.5361 26.7579 28.6488 24.2042 30.6694 22.2937C30.9093 22.067 30.9128 21.6961 30.6773 21.4651C30.442 21.2343 30.0567 21.2308 29.8169 21.4576C27.5613 23.5901 26.3191 26.4408 26.3191 29.4843V39.6335C26.3191 41.4529 27.2575 43.1384 28.7548 44.1653L26.0463 45.043C23.8152 45.7662 22.3162 47.7748 22.3162 50.0413V57.6499C22.3162 57.9735 22.5886 58.2358 22.9246 58.2358C23.2607 58.2358 23.5331 57.9735 23.5331 57.6499V50.0413C23.5331 48.2785 24.6991 46.7162 26.4345 46.1537L27.4919 45.8111C27.3354 46.4304 27.2662 47.0687 27.2906 47.7007C27.3136 48.3007 27.4187 48.8904 27.6007 49.4624C26.4187 49.8041 25.5549 50.861 25.5549 52.109V54.4937C25.5549 55.0836 26.0532 55.5634 26.6658 55.5634H27.3477C27.6837 55.5634 27.9561 55.3011 27.9561 54.9775C27.9561 54.6539 27.6837 54.3915 27.3477 54.3915H26.7717V52.109C26.7717 51.2319 27.5124 50.5183 28.4231 50.5177C28.4236 50.5177 28.424 50.5178 28.4245 50.5178C28.425 50.5178 28.4255 50.5177 28.426 50.5177C29.3364 50.5187 30.0768 51.2321 30.0768 52.109V54.3915H29.5009C29.1649 54.3915 28.8925 54.6539 28.8925 54.9775C28.8925 55.3011 29.1649 55.5634 29.5009 55.5634H30.1828C30.7954 55.5634 31.2937 55.0835 31.2937 54.4937V52.109C31.2937 50.7256 30.2325 49.5765 28.8528 49.3768C28.6463 48.8222 28.5292 48.2455 28.5065 47.6573C28.4766 46.8773 28.618 46.0849 28.9157 45.3497L33.0664 44.0046L37.4216 48.1983C37.7773 48.5442 38.384 48.5458 38.7411 48.1983L39.943 47.0409C40.1806 46.8121 40.1806 46.4411 39.943 46.2123C39.7054 45.9835 39.3201 45.9835 39.0825 46.2123L38.0812 47.1763L34.2242 43.4622C34.7961 42.9834 35.0567 42.2537 34.9983 41.5173C35.9302 41.8303 36.929 42.0021 37.9676 42.0056C39.0143 42.0091 40.0393 41.8447 41.0019 41.5269C40.9025 42.2742 41.262 43.0874 41.8658 43.5319L41.0862 44.2826C40.8486 44.5115 40.8486 44.8825 41.0862 45.1112C41.3238 45.3401 41.7091 45.3401 41.9467 45.1112L43.0551 44.0438L46.7606 45.2446C47.0408 45.9308 47.1854 46.6731 47.1782 47.4076C47.1717 48.0736 47.0396 48.7461 46.796 49.373C45.2142 49.5724 43.9886 50.8778 43.9886 52.4545C43.9886 54.1687 45.4369 55.5633 47.217 55.5633C48.9972 55.5633 50.4454 54.1688 50.4454 52.4546C50.4454 51.0195 49.4301 49.809 48.0552 49.4526C48.2718 48.7951 48.3884 48.104 48.3952 47.4188C48.4009 46.8451 48.3296 46.2675 48.1872 45.7069L49.5658 46.1536C51.3012 46.7161 52.4672 48.2784 52.4672 50.0412V57.6498C52.4672 57.9734 52.7396 58.2358 53.0756 58.2358C53.4117 58.2358 53.6841 57.9734 53.6841 57.6498V50.0412C53.6841 47.7748 52.1851 45.7662 49.9539 45.043ZM47.2349 30.3512H47.2661C47.9253 30.3512 48.4616 30.8665 48.4642 31.5006V31.5096C48.4613 32.1522 47.9052 32.6775 47.2349 32.659V30.3512ZM27.536 31.5007C27.5379 30.8576 28.0957 30.3331 28.7653 30.3512V32.6592C28.095 32.677 27.5388 32.1539 27.536 31.5097V31.5007ZM33.7813 41.8351C33.7813 42.255 33.504 42.6267 33.0908 42.7602L30.2992 43.6649C28.6382 42.9802 27.5361 41.3854 27.5361 39.6336V33.5235C27.9179 33.736 28.3398 33.8383 28.8033 33.8312C29.0922 36.9584 31.0396 39.6333 33.7813 41.0108V41.8351ZM37.9717 40.8337C33.5663 40.819 29.9823 37.3151 29.9823 33.0228V30.2992C31.8242 30.1044 33.5933 29.6218 35.2487 28.8616C36.2272 28.4123 37.1636 27.8648 38.0338 27.2337C39.1258 27.8914 40.2808 28.4653 41.4684 28.9399C42.9309 29.5245 44.4591 29.966 46.0178 30.2547V33.1129C46.0178 35.1803 45.1803 37.1225 43.6596 38.5819C42.1131 40.0661 40.1812 40.8412 37.9717 40.8337ZM45.7011 43.6648L42.9089 42.76C42.4961 42.6267 42.2188 42.255 42.2188 41.8351V41.0278C43.0566 40.6126 43.832 40.0709 44.5187 39.4119C46.093 37.9012 47.0311 35.9412 47.2049 33.831C47.6523 33.8372 48.0977 33.7284 48.4643 33.5233V39.6334C48.4642 41.3854 47.3621 42.9802 45.7011 43.6648ZM49.2285 52.4546C49.2285 53.5226 48.3261 54.3915 47.2171 54.3915C46.108 54.3915 45.2056 53.5226 45.2056 52.4546C45.2056 51.3873 46.1067 50.519 47.2147 50.5177C47.2154 50.5177 47.216 50.5178 47.2167 50.5178C47.2172 50.5178 47.2178 50.5177 47.2184 50.5177C48.3269 50.5183 49.2285 51.3869 49.2285 52.4546ZM41.9346 30.8291C41.5986 30.8291 41.3262 31.0915 41.3262 31.4151V32.7554C41.3262 33.079 41.5986 33.3414 41.9346 33.3414C42.2707 33.3414 42.5431 33.079 42.5431 32.7554V31.4151C42.5431 31.0915 42.2707 30.8291 41.9346 30.8291ZM38.864 36.3962C38.7271 36.4898 38.4397 36.649 38.0536 36.6622C37.6181 36.6769 37.2909 36.5017 37.1356 36.3957C36.8614 36.2086 36.4816 36.271 36.2873 36.5351C36.093 36.799 36.1578 37.1648 36.432 37.3519C36.7013 37.5357 37.2547 37.8351 38.0006 37.8351C38.6541 37.8351 39.2609 37.5621 39.5687 37.3515C39.8427 37.1641 39.907 36.7983 39.7124 36.5345C39.5179 36.2707 39.138 36.2087 38.864 36.3962ZM34.0655 30.8291C33.7295 30.8291 33.4571 31.0915 33.4571 31.4151V32.7554C33.4571 33.079 33.7295 33.3414 34.0655 33.3414C34.4016 33.3414 34.674 33.079 34.674 32.7554V31.4151C34.674 31.0915 34.4017 30.8291 34.0655 30.8291Z" fill="white"/>
</g>
<defs>
<clipPath id="clip0_7_24">
<rect width="41.5385" height="40" fill="white" transform="translate(17.231 18.2358)"/>
</clipPath>
</defs>
</svg>
