<svg width="198" height="139" viewBox="0 0 198 139" fill="none" xmlns="http://www.w3.org/2000/svg">
<path d="M36.4656 3.87884C36.4656 2.04851 37.9443 0.567965 39.7723 0.567965C41.6004 0.567965 43.0791 2.04851 43.0791 3.87884C43.0791 5.70917 41.6004 7.1897 39.7723 7.1897C37.9443 7.1897 36.4656 5.70917 36.4656 3.87884Z" fill="#86CCFF"/>
<path d="M81.6531 71.3406V65.451H75.7708V60.7572H81.6531V54.8676H86.341V60.7572H92.2233V65.451H86.341V71.3406H81.6531ZM81.1493 71.845H86.8448V65.9554H92.7271V60.2529H86.8448V54.3633H81.1493V60.2529H75.2671V65.9554H81.1493V71.845Z" fill="#86CCFF"/>
<path d="M39.2668 112.056C39.2668 111.177 39.9817 110.461 40.8592 110.461C41.7367 110.461 42.4517 111.177 42.4517 112.056C42.4517 112.934 41.7367 113.65 40.8592 113.65C39.9817 113.65 39.2668 112.934 39.2668 112.056Z" fill="#86CCFF"/>
<path d="M30.6946 98.2428V84.4625H16.9314V73.4805H30.6946V59.7001H41.663V73.4805H55.4263V84.4625H41.663V98.2428H30.6946ZM29.5166 99.4224H42.833V85.642H56.5962V72.3091H42.833V58.5287H29.5166V72.3091H15.7533V85.642H29.5166V99.4224Z" fill="#86CCFF"/>
<path d="M196.285 42.9097C195.607 42.9097 195.058 43.4597 195.058 44.1381C195.058 44.8165 195.607 45.3665 196.285 45.3665C196.962 45.3665 197.512 44.8165 197.512 44.1381C197.512 43.4597 196.962 42.9097 196.285 42.9097Z" fill="#86CCFF"/>
<path d="M114.388 89.6037H123.991V99.2109H133.277V89.6037H142.881V80.2975H133.277V70.6903H123.991V80.2975H114.388V89.6037Z" fill="#86CCFF"/>
<path d="M104.67 59.6512H111.673V66.6553H118.449V59.6512H125.445V52.8668H118.449V45.8546H111.673V52.8668H104.67V59.6512Z" fill="#86CCFF"/>
<path d="M152.224 84.5521V69.7305H137.421V57.9187H152.224V43.0971H164.021V57.9187H178.824V69.7305H164.021V84.5521H152.224ZM150.965 85.813H165.289V70.9914H180.092V56.6497H165.289V41.8281H150.965V56.6497H136.162V70.9914H150.965V85.813Z" fill="#86CCFF"/>
<path d="M75.665 136.322V115.098H54.4676V98.1776H75.665V76.9539H92.5644V98.1776H113.762V115.098H92.5644V136.322H75.665ZM73.8532 138.136H94.3681V116.912H115.565V96.3716H94.3681V75.1479H73.8532V96.3716H52.6558V116.912H73.8532V138.136Z" fill="#86CCFF"/>
<path d="M52.7452 40.1355H61.7068V49.1082H70.3759V40.1355H79.3374V31.4475H70.3759V22.4748H61.7068V31.4475H52.7452V40.1355Z" fill="#86CCFF"/>
<path d="M-0.000141144 53.0373H15.5343V68.5911H30.5569V53.0373H46.0913V37.9879H30.5569V22.4423H15.5343V37.9879H-0.000141144V53.0373Z" fill="#86CCFF"/>
</svg>
