<svg width="198" height="138" viewBox="0 0 198 138" fill="none" xmlns="http://www.w3.org/2000/svg">
<path d="M161.534 134.257C161.534 136.087 160.056 137.568 158.228 137.568C156.4 137.568 154.921 136.087 154.921 134.257C154.921 132.427 156.4 130.946 158.228 130.946C160.056 130.946 161.534 132.427 161.534 134.257Z" fill="#86CCFF"/>
<path d="M116.347 66.7951V72.6847H122.229V77.3785H116.347V83.2681H111.659V77.3785H105.777V72.6847H111.659V66.7951H116.347ZM116.851 66.2908H111.155V72.1804H105.273V77.8829H111.155V83.7725H116.851V77.8829H122.733V72.1804H116.851V66.2908Z" fill="#86CCFF"/>
<path d="M158.733 26.08C158.733 26.9586 158.018 27.6744 157.141 27.6744C156.263 27.6744 155.548 26.9586 155.548 26.08C155.548 25.2015 156.263 24.4856 157.141 24.4856C158.018 24.4856 158.733 25.2015 158.733 26.08Z" fill="#86CCFF"/>
<path d="M167.305 39.8929V53.6733H181.069V64.6553H167.305V78.4356H156.337V64.6553H142.574V53.6733H156.337V39.8929H167.305ZM168.483 38.7134H155.167V52.4937H141.404V65.8267H155.167V79.6071H168.483V65.8267H182.247V52.4937H168.483V38.7134Z" fill="#86CCFF"/>
<path d="M1.71511 95.226C2.39267 95.226 2.94195 94.676 2.94195 93.9976C2.94195 93.3192 2.39267 92.7693 1.71511 92.7693C1.03755 92.7693 0.488281 93.3192 0.488281 93.9976C0.488281 94.676 1.03755 95.226 1.71511 95.226Z" fill="#86CCFF"/>
<path d="M83.6125 48.532H74.0091V38.9248H64.7225V48.532H55.1191V57.8382H64.7225V67.4454H74.0091V57.8382H83.6125V48.532Z" fill="#86CCFF"/>
<path d="M93.3301 78.4845H86.3266V71.4805H79.5506V78.4845H72.5552V85.269H79.5506V92.2812H86.3266V85.269H93.3301V78.4845Z" fill="#86CCFF"/>
<path d="M45.7759 53.5837V68.4053H60.5792V80.217H45.7759V95.0386H33.9789V80.217H19.1757V68.4053H33.9789V53.5837H45.7759ZM47.0353 52.3228H32.7114V67.1444H17.9082V81.486H32.7114V96.3077H47.0353V81.486H61.8385V67.1444H47.0353V52.3228Z" fill="#86CCFF"/>
<path d="M122.335 1.81406V23.0378H143.532V39.9582H122.335V61.1819H105.436V39.9582H84.2383V23.0378H105.436V1.81406H122.335ZM124.147 0H103.632V21.2237H82.4346V41.7641H103.632V62.9878H124.147V41.7641H145.344V21.2237H124.147V0Z" fill="#86CCFF"/>
<path d="M145.255 98.0003H136.293V89.0276H127.624V98.0003H118.663V106.688H127.624V115.661H136.293V106.688H145.255V98.0003Z" fill="#86CCFF"/>
<path d="M198 85.0984H182.466V69.5447H167.443V85.0984H151.909V100.148H167.443V115.693H182.466V100.148H198V85.0984Z" fill="#86CCFF"/>
</svg>
