<svg width="16" height="223" viewBox="0 0 16 223" fill="none" xmlns="http://www.w3.org/2000/svg">
<path d="M8 0.73584C3.58172 0.73584 1.93129e-07 4.31756 0 8.73584C-1.93129e-07 13.1541 3.58172 16.7358 8 16.7358C12.4183 16.7358 16 13.1541 16 8.73584C16 4.31756 12.4183 0.73584 8 0.73584ZM7.99999 206.736C3.58171 206.736 -8.81142e-06 210.318 -9.00455e-06 214.736C-9.19768e-06 219.154 3.58171 222.736 7.99999 222.736C12.4183 222.736 16 219.154 16 214.736C16 210.318 12.4183 206.736 7.99999 206.736ZM6.5 8.73584L6.49999 214.736L9.49999 214.736L9.5 8.73584L6.5 8.73584Z" fill="#446489"/>
</svg>
