<svg width="76" height="76" viewBox="0 0 76 76" fill="none" xmlns="http://www.w3.org/2000/svg">
<rect x="1" y="1.23584" width="74" height="74" rx="37" fill="white"/>
<path d="M44.4729 38.4933C45.6002 36.8495 46.6823 35.0059 47.6066 32.9624L58 33.5177" stroke="#446489" stroke-miterlimit="10" stroke-linecap="round" stroke-linejoin="round"/>
<path d="M57.7294 18.2358L46.6598 21.3012C43.7064 22.123 41.2489 24.0777 39.8061 26.7432L31.6447 41.5144L28.1277 48.0893C27.6768 48.9333 27.0681 49.6886 26.3466 50.3327L22.1532 54.02C21.9052 54.2421 21.6121 54.4198 21.3191 54.5753L18.749 55.7747C18.0951 56.0857 17.8246 56.841 18.1177 57.4851C18.3882 58.0404 19.0195 58.3514 19.6282 58.1959L24.791 56.8853C25.1292 56.7965 25.4899 56.7965 25.8506 56.8409L28.1052 57.2408C29.2324 57.4407 30.3822 57.2852 31.4193 56.7965L31.4869 56.7743C32.9073 56.1079 33.9669 54.8418 34.3953 53.3314C34.6432 52.3762 34.6432 51.3767 34.3501 50.4215L34.2374 50.0662C34.0345 49.3776 34.2825 48.6446 34.8687 48.2225C36.289 47.2452 39.017 45.1572 41.8351 41.9142" stroke="#446489" stroke-miterlimit="10" stroke-linecap="round" stroke-linejoin="round"/>
<path d="M48.2831 42.3586L54.1673 48.156L51.3942 50.9103L45.4874 45.0906L45.0591 43.2248L46.3892 41.9365L48.2831 42.3586Z" stroke="#446489" stroke-miterlimit="10" stroke-linecap="round" stroke-linejoin="round"/>
<path d="M50.6956 51.5763L54.8438 47.4893" stroke="#446489" stroke-miterlimit="10" stroke-linecap="round" stroke-linejoin="round"/>
<path d="M52.1157 54.4194L57.7294 48.8884" stroke="#446489" stroke-miterlimit="10" stroke-linecap="round" stroke-linejoin="round"/>
<path d="M52.7698 49.5325L54.9341 51.6436" stroke="#446489" stroke-miterlimit="10" stroke-linecap="round" stroke-linejoin="round"/>
<path d="M46.9307 46.5343L49.7262 43.78" stroke="#446489" stroke-miterlimit="10" stroke-linecap="round" stroke-linejoin="round"/>
<path d="M45.7133 42.5803L40.9563 37.8936" stroke="#446489" stroke-miterlimit="10" stroke-linecap="round" stroke-linejoin="round"/>
<path d="M48.3281 28.2982C48.3281 29.4088 47.4263 30.2973 46.2991 30.2973C45.1718 30.2973 44.27 29.4088 44.27 28.2982C44.27 27.1876 45.1718 26.2991 46.2991 26.2991" stroke="#446489" stroke-miterlimit="10" stroke-linecap="round" stroke-linejoin="round"/>
<path d="M40.054 31.0746C40.347 30.3638 41.1587 30.0084 41.8801 30.2971C42.6015 30.5859 42.9623 31.3855 42.6692 32.0963C42.3761 32.8071 41.5645 33.1625 40.843 32.8738" stroke="#446489" stroke-miterlimit="10" stroke-linecap="round" stroke-linejoin="round"/>
<path d="M38.1152 42.9584C37.9348 42.8918 37.7544 42.8029 37.5966 42.6697C36.6948 42.0033 36.289 41.137 36.8075 40.1819" stroke="#446489" stroke-miterlimit="10" stroke-linecap="round" stroke-linejoin="round"/>
<path d="M39.8287 39.6488C39.22 40.4484 38.1603 40.7372 37.2585 40.4262C37.0556 40.3595 36.8752 40.2485 36.6949 40.1375C35.7029 39.4045 35.5676 38.0717 36.2214 37.0499C36.6723 36.3391 37.9574 35.6506 38.9494 36.3613C39.0621 36.4502 39.1748 36.5391 39.2875 36.6501C39.3101 36.3391 39.4228 36.0282 39.6483 35.7394C40.257 34.9398 41.8126 34.9619 42.6468 35.5617C42.6919 35.5839 42.737 35.6283 42.7595 35.6505C43.2555 35.1397 43.6162 34.8731 44.2926 35.0952" stroke="#446489" stroke-miterlimit="10" stroke-linecap="round" stroke-linejoin="round"/>
<rect x="1" y="1.23584" width="74" height="74" rx="37" stroke="#2BAFE6"/>
</svg>
