<svg width="76" height="76" viewBox="0 0 76 76" fill="none" xmlns="http://www.w3.org/2000/svg">
<rect x="1" y="1.23584" width="74" height="74" rx="37" fill="white"/>
<g clip-path="url(#clip0_6_492)">
<path d="M37.9998 53.5483C37.6638 53.5483 37.3914 53.8107 37.3914 54.1343C37.3914 54.4579 37.6638 54.7202 37.9998 54.7202C38.3359 54.7202 38.6083 54.4579 38.6083 54.1343C38.6083 53.8107 38.3359 53.5483 37.9998 53.5483ZM37.9998 50.0327C37.6638 50.0327 37.3914 50.2951 37.3914 50.6187C37.3914 50.9422 37.6638 51.2046 37.9998 51.2046C38.3359 51.2046 38.6083 50.9422 38.6083 50.6187C38.6083 50.2951 38.3359 50.0327 37.9998 50.0327ZM37.9998 57.064C37.6638 57.064 37.3914 57.3263 37.3914 57.6499C37.3914 57.9735 37.6638 58.2358 37.9998 58.2358C38.3359 58.2358 38.6083 57.9735 38.6083 57.6499C38.6083 57.3263 38.3359 57.064 37.9998 57.064ZM49.9537 45.043L47.2452 44.1654C48.7425 43.1384 49.6809 41.4529 49.6809 39.6336C49.6848 39.6261 49.6809 29.4844 49.6809 29.4844C49.6809 26.4808 48.466 23.6562 46.2599 21.531C44.0534 19.4061 41.1199 18.2358 37.9998 18.2358C35.9958 18.2358 34.0186 18.7329 32.2818 19.6735C31.9889 19.8321 31.885 20.1894 32.0497 20.4714C32.2144 20.7535 32.5855 20.8534 32.8783 20.6949C34.4333 19.8529 36.2043 19.4077 37.9998 19.4077C40.7949 19.4077 43.4227 20.456 45.3994 22.3594C47.3756 24.2633 48.464 26.7936 48.464 29.4843V29.4869C48.1106 29.2916 47.7017 29.1793 47.2658 29.1793H46.6811C45.0532 28.9101 43.4565 28.4658 41.9346 27.8576C40.7764 27.3947 39.6509 26.8322 38.5894 26.186C38.2177 25.9596 37.7327 25.9806 37.3826 26.2383C36.5545 26.8474 35.6603 27.3742 34.7246 27.8039C33.0435 28.5759 31.2346 29.0385 29.3478 29.1793H28.7339C28.2981 29.1793 27.8892 29.2916 27.5358 29.4869V29.4843C27.5358 26.7579 28.6486 24.2042 30.6692 22.2937C30.909 22.067 30.9125 21.6961 30.6771 21.4651C30.4417 21.2343 30.0564 21.2308 29.8166 21.4576C27.561 23.5901 26.3189 26.4408 26.3189 29.4843V39.6335C26.3189 41.4529 27.2573 43.1384 28.7545 44.1653L26.046 45.043C23.815 45.7662 22.3159 47.7748 22.3159 50.0413V57.6499C22.3159 57.9735 22.5884 58.2358 22.9244 58.2358C23.2604 58.2358 23.5329 57.9735 23.5329 57.6499V50.0413C23.5329 48.2785 24.6989 46.7162 26.4342 46.1537L27.4917 45.8111C27.3352 46.4304 27.266 47.0687 27.2903 47.7007C27.3134 48.3007 27.4185 48.8904 27.6005 49.4624C26.4185 49.8041 25.5546 50.861 25.5546 52.109V54.4937C25.5546 55.0836 26.053 55.5634 26.6655 55.5634H27.3474C27.6835 55.5634 27.9559 55.3011 27.9559 54.9775C27.9559 54.6539 27.6835 54.3915 27.3474 54.3915H26.7715V52.109C26.7715 51.2319 27.5122 50.5183 28.4229 50.5177C28.4234 50.5177 28.4238 50.5178 28.4243 50.5178C28.4247 50.5178 28.4252 50.5177 28.4257 50.5177C29.3362 50.5187 30.0766 51.2321 30.0766 52.109V54.3915H29.5007C29.1647 54.3915 28.8922 54.6539 28.8922 54.9775C28.8922 55.3011 29.1647 55.5634 29.5007 55.5634H30.1826C30.7951 55.5634 31.2935 55.0835 31.2935 54.4937V52.109C31.2935 50.7256 30.2322 49.5765 28.8525 49.3768C28.6461 48.8222 28.5289 48.2455 28.5063 47.6573C28.4763 46.8773 28.6178 46.0849 28.9155 45.3497L33.0662 44.0046L37.4213 48.1983C37.7771 48.5442 38.3838 48.5458 38.7408 48.1983L39.9427 47.0409C40.1804 46.8121 40.1804 46.4411 39.9427 46.2123C39.7051 45.9835 39.3198 45.9835 39.0823 46.2123L38.081 47.1763L34.224 43.4622C34.7959 42.9834 35.0565 42.2537 34.998 41.5173C35.93 41.8303 36.9288 42.0021 37.9673 42.0056C39.0141 42.0091 40.039 41.8447 41.0017 41.5269C40.9023 42.2742 41.2618 43.0874 41.8655 43.5319L41.0859 44.2826C40.8483 44.5115 40.8483 44.8825 41.0859 45.1112C41.3236 45.3401 41.7089 45.3401 41.9464 45.1112L43.0549 44.0438L46.7603 45.2446C47.0405 45.9308 47.1852 46.6731 47.178 47.4076C47.1714 48.0736 47.0393 48.7461 46.7958 49.373C45.214 49.5724 43.9884 50.8778 43.9884 52.4545C43.9884 54.1687 45.4366 55.5633 47.2168 55.5633C48.9969 55.5633 50.4452 54.1688 50.4452 52.4546C50.4452 51.0195 49.4299 49.809 48.0549 49.4526C48.2715 48.7951 48.3882 48.104 48.3949 47.4188C48.4006 46.8451 48.3294 46.2675 48.187 45.7069L49.5656 46.1536C51.301 46.7161 52.4669 48.2784 52.4669 50.0412V57.6498C52.4669 57.9734 52.7393 58.2358 53.0754 58.2358C53.4114 58.2358 53.6839 57.9734 53.6839 57.6498V50.0412C53.6839 47.7748 52.1848 45.7662 49.9537 45.043ZM47.2346 30.3512H47.2658C47.925 30.3512 48.4614 30.8665 48.464 31.5006V31.5096C48.4611 32.1522 47.905 32.6775 47.2346 32.659V30.3512ZM27.5357 31.5007C27.5377 30.8576 28.0954 30.3331 28.7651 30.3512V32.6592C28.0947 32.677 27.5386 32.1539 27.5357 31.5097V31.5007ZM33.7811 41.8351C33.7811 42.255 33.5038 42.6267 33.0905 42.7602L30.2989 43.6649C28.638 42.9802 27.5358 41.3854 27.5358 39.6336V33.5235C27.9176 33.736 28.3396 33.8383 28.8031 33.8312C29.092 36.9584 31.0393 39.6333 33.7811 41.0108V41.8351ZM37.9715 40.8337C33.5661 40.819 29.982 37.3151 29.982 33.0228V30.2992C31.8239 30.1044 33.593 29.6218 35.2485 28.8616C36.227 28.4123 37.1634 27.8648 38.0335 27.2337C39.1255 27.8914 40.2806 28.4653 41.4681 28.9399C42.9307 29.5245 44.4588 29.966 46.0176 30.2547V33.1129C46.0176 35.1803 45.1801 37.1225 43.6594 38.5819C42.1128 40.0661 40.1809 40.8412 37.9715 40.8337ZM45.7009 43.6648L42.9086 42.76C42.4959 42.6267 42.2186 42.255 42.2186 41.8351V41.0278C43.0563 40.6126 43.8318 40.0709 44.5185 39.4119C46.0927 37.9012 47.0308 35.9412 47.2047 33.831C47.6521 33.8372 48.0975 33.7284 48.4641 33.5233V39.6334C48.464 41.3854 47.3618 42.9802 45.7009 43.6648ZM49.2282 52.4546C49.2282 53.5226 48.3259 54.3915 47.2168 54.3915C46.1077 54.3915 45.2054 53.5226 45.2054 52.4546C45.2054 51.3873 46.1065 50.519 47.2145 50.5177C47.2151 50.5177 47.2158 50.5178 47.2164 50.5178C47.217 50.5178 47.2176 50.5177 47.2181 50.5177C48.3266 50.5183 49.2282 51.3869 49.2282 52.4546ZM41.9344 30.8291C41.5984 30.8291 41.3259 31.0915 41.3259 31.4151V32.7554C41.3259 33.079 41.5984 33.3414 41.9344 33.3414C42.2704 33.3414 42.5429 33.079 42.5429 32.7554V31.4151C42.5429 31.0915 42.2704 30.8291 41.9344 30.8291ZM38.8638 36.3962C38.7269 36.4898 38.4395 36.649 38.0534 36.6622C37.6179 36.6769 37.2907 36.5017 37.1353 36.3957C36.8612 36.2086 36.4813 36.271 36.287 36.5351C36.0927 36.799 36.1576 37.1648 36.4318 37.3519C36.701 37.5357 37.2544 37.8351 38.0003 37.8351C38.6538 37.8351 39.2607 37.5621 39.5685 37.3515C39.8425 37.1641 39.9068 36.7983 39.7122 36.5345C39.5176 36.2707 39.1378 36.2087 38.8638 36.3962ZM34.0653 30.8291C33.7293 30.8291 33.4568 31.0915 33.4568 31.4151V32.7554C33.4568 33.079 33.7293 33.3414 34.0653 33.3414C34.4013 33.3414 34.6738 33.079 34.6738 32.7554V31.4151C34.6738 31.0915 34.4014 30.8291 34.0653 30.8291Z" fill="#446489"/>
</g>
<rect x="1" y="1.23584" width="74" height="74" rx="37" stroke="#2BAFE6"/>
<defs>
<clipPath id="clip0_6_492">
<rect width="41.5385" height="40" fill="white" transform="translate(17.2307 18.2358)"/>
</clipPath>
</defs>
</svg>
