<svg width="76" height="76" viewBox="0 0 76 76" fill="none" xmlns="http://www.w3.org/2000/svg">
<rect x="1" y="1.23584" width="74" height="74" rx="37" fill="white"/>
<g clip-path="url(#clip0_6_504)">
<path d="M49.32 44.689C49.6436 44.689 49.906 44.4267 49.906 44.1031V21.1655C49.906 19.5501 48.5917 18.2358 46.9763 18.2358H29.0239C27.4085 18.2358 26.0942 19.5501 26.0942 21.1655V55.3062C26.0942 56.9216 27.4085 58.2358 29.0239 58.2358H46.9762C48.5917 58.2358 49.9059 56.9216 49.9059 55.3062V46.8375C49.9059 46.5139 49.6435 46.2515 49.32 46.2515C48.9964 46.2515 48.734 46.5139 48.734 46.8375V55.3062C48.734 56.2754 47.9455 57.064 46.9762 57.064H29.0239C28.0546 57.064 27.2661 56.2754 27.2661 55.3062V21.1655C27.2661 20.1962 28.0546 19.4077 29.0239 19.4077H32.4249V21.0109C32.4249 21.6787 32.9681 22.2219 33.6359 22.2219H42.3642C43.032 22.2219 43.5752 21.6787 43.5752 21.0109V19.4077H46.9762C47.9455 19.4077 48.734 20.1962 48.734 21.1655V44.1031C48.7341 44.4267 48.9964 44.689 49.32 44.689ZM42.4033 21.0109C42.4033 21.0325 42.3858 21.05 42.3642 21.05H33.636C33.6144 21.05 33.5969 21.0325 33.5969 21.0109V19.4077H42.4034V21.0109H42.4033ZM45.3356 50.3769H30.6646C30.083 50.3769 29.6099 50.85 29.6099 51.4315V53.304C29.6099 53.8855 30.083 54.3587 30.6646 54.3587H45.3356C45.9171 54.3587 46.3903 53.8855 46.3903 53.304V51.4315C46.3903 50.85 45.9171 50.3769 45.3356 50.3769ZM45.2185 53.1868H30.7817V51.5487H45.2184V53.1868H45.2185ZM46.3903 45.106C46.3903 44.5244 45.9172 44.0513 45.3356 44.0513H30.6646C30.083 44.0513 29.6099 44.5244 29.6099 45.106V46.9784C29.6099 47.56 30.083 48.0331 30.6646 48.0331H45.3356C45.9171 48.0331 46.3903 47.56 46.3903 46.9784V45.106H46.3903ZM45.2185 46.8612H30.7817V45.2232H45.2184V46.8612H45.2185ZM38.7938 27.5726H37.2065C36.5917 27.5726 36.0915 28.0729 36.0915 28.6876V31.4086H33.3706C32.7557 31.4086 32.2556 31.9088 32.2556 32.5237V34.1109C32.2556 34.7258 32.7558 35.2259 33.3706 35.2259H36.0915V37.9469C36.0915 38.5617 36.5917 39.0619 37.2065 39.0619H38.7938C39.4086 39.0619 39.9088 38.5617 39.9088 37.9469V35.2259H42.6297C43.2446 35.2259 43.7447 34.7257 43.7447 34.1109V32.5237C43.7447 31.9088 43.2445 31.4086 42.6297 31.4086H39.9088V28.6876C39.9088 28.0729 39.4085 27.5726 38.7938 27.5726ZM42.5729 32.5805V34.0542H39.5874C39.1185 34.0542 38.737 34.4357 38.737 34.9047V37.8901H37.2634V34.9047C37.2634 34.4357 36.8819 34.0542 36.4129 34.0542H33.4274V32.5805H36.4129C36.8819 32.5805 37.2634 32.199 37.2634 31.7301V28.7446H38.737V31.7301C38.737 32.199 39.1185 32.5805 39.5874 32.5805H42.5729ZM38.0001 24.9272C35.8808 24.9272 33.8562 25.7224 32.2992 27.1664C32.062 27.3864 32.048 27.7572 32.2681 27.9944C32.4881 28.2317 32.8589 28.2457 33.0961 28.0256C34.4356 26.7833 36.1773 26.099 38.0001 26.099C41.9803 26.099 45.2185 29.3372 45.2185 33.3174C45.2185 37.2976 41.9803 40.5357 38.0001 40.5357C34.0199 40.5357 30.7817 37.2976 30.7817 33.3173C30.7817 32.1445 31.0553 31.0254 31.595 29.9908C31.7447 29.704 31.6335 29.35 31.3465 29.2004C31.0596 29.0507 30.7056 29.162 30.556 29.4489C29.9371 30.6354 29.6099 31.9732 29.6099 33.3174C29.6099 37.9438 33.3737 41.7076 38.0001 41.7076C42.6265 41.7076 46.3903 37.9438 46.3903 33.3174C46.3903 28.691 42.6265 24.9272 38.0001 24.9272Z" fill="#446489"/>
</g>
<rect x="1" y="1.23584" width="74" height="74" rx="37" stroke="#2BAFE6"/>
<defs>
<clipPath id="clip0_6_504">
<rect width="40" height="40" fill="white" transform="translate(18 18.2358)"/>
</clipPath>
</defs>
</svg>
