<svg width="76" height="76" viewBox="0 0 76 76" fill="none" xmlns="http://www.w3.org/2000/svg">
<rect x="1" y="1.23584" width="74" height="74" rx="37" fill="white"/>
<g clip-path="url(#clip0_6_557)">
<path d="M56.2424 36.9477H50.5393V32.0835H52.2965V33.054C52.2965 33.3776 52.5588 33.6399 52.8824 33.6399C53.2061 33.6399 53.4684 33.3776 53.4684 33.054V29.9411C53.4684 29.6175 53.2061 29.3551 52.8824 29.3551C52.5588 29.3551 52.2965 29.6175 52.2965 29.9411V30.9116H50.5393V22.6904H53.5471C54.7317 22.6904 55.6955 21.7267 55.6955 20.542V18.8232C55.6955 18.4996 55.4333 18.2373 55.1096 18.2373C54.7859 18.2373 54.5237 18.4996 54.5237 18.8232V20.542C54.5237 21.0805 54.0856 21.5185 53.5471 21.5185H46.3597C45.8212 21.5185 45.3831 21.0805 45.3831 20.542V18.8232C45.3831 18.4996 45.1208 18.2373 44.7972 18.2373C44.4735 18.2373 44.2112 18.4996 44.2112 18.8232V20.542C44.2112 21.311 44.6177 21.9867 45.2269 22.3663V24.4349H44.3284C43.833 24.4349 43.43 24.838 43.43 25.3334V28.8283C43.43 29.7976 44.2186 30.5861 45.1878 30.5861H46.4378C47.407 30.5861 48.1956 29.7976 48.1956 28.8283V25.3334C48.1956 24.838 47.7926 24.4349 47.2972 24.4349H46.3987V22.6904H49.3675V36.9477H39.4038C39.0801 36.9477 38.8178 37.2101 38.8178 37.5337C38.8178 37.8573 39.0801 38.1196 39.4038 38.1196H56.2424C56.5655 38.1196 56.8284 38.3824 56.8284 38.7055V40.1219H23.8647V38.1196H36.6693C36.993 38.1196 37.2553 37.8573 37.2553 37.5337C37.2553 37.2101 36.993 36.9477 36.6693 36.9477H34.8449V34.4039C34.8449 33.2192 33.8811 32.2554 32.6965 32.2554H23.8647V30.9485C23.8647 29.7638 22.9008 28.8001 21.7162 28.8001H19.0552C18.4736 28.8001 18.0005 29.2732 18.0005 29.8547C18.0005 29.9419 17.9991 42.3466 18.0033 42.4298C18.0599 43.5434 18.993 44.4701 20.1489 44.4679H23.8989V49.7174C22.4813 50.4841 21.5161 51.9843 21.5161 53.7059C21.5161 56.2044 23.5488 58.2371 26.0473 58.2371C27.7689 58.2371 29.2691 57.2719 30.0358 55.8543H45.9649C46.7315 57.2719 48.2318 58.2371 49.9534 58.2371C52.4519 58.2371 54.4846 56.2044 54.4846 53.7059C54.4846 51.9843 53.5194 50.4841 52.1018 49.7174V46.6161C52.1018 46.2925 51.8396 46.0302 51.5159 46.0302C51.1922 46.0302 50.93 46.2925 50.93 46.6161V49.2819C50.6152 49.2124 50.2887 49.1747 49.9534 49.1747C49.6181 49.1747 49.2916 49.2124 48.9768 49.2819V44.4679H56.2424C57.2116 44.4679 58.0002 43.6793 58.0002 42.7101V38.7056C58.0002 37.7363 57.2116 36.9477 56.2424 36.9477ZM47.0237 25.6068V28.8283C47.0237 29.1515 46.7609 29.4143 46.4378 29.4143H45.1878C44.8647 29.4143 44.6019 29.1515 44.6019 28.8283V25.6068H47.0237ZM23.8647 33.4273H32.6966C33.2351 33.4273 33.6731 33.8653 33.6731 34.4039V36.9477H23.8647V33.4273ZM22.6928 43.2959H20.1489C19.6104 43.2959 19.1723 42.8579 19.1723 42.3193V29.9719H21.7162C22.2547 29.9719 22.6928 30.41 22.6928 30.9485V43.2959ZM26.0473 57.0652C24.195 57.0652 22.6879 55.5582 22.6879 53.7058C22.6879 51.8535 24.195 50.3465 26.0473 50.3465C27.8996 50.3465 29.4066 51.8535 29.4066 53.7058C29.4066 55.5582 27.8996 57.0652 26.0473 57.0652ZM25.0707 49.2818V44.4678H27.0239V49.2818C26.7091 49.2124 26.3826 49.1746 26.0473 49.1746C25.712 49.1746 25.3855 49.2124 25.0707 49.2818ZM33.3129 54.6824H30.4714C30.5409 54.3676 30.5785 54.0412 30.5785 53.7058C30.5785 53.3705 30.5408 53.0441 30.4714 52.7293H33.3129V54.6824ZM37.5801 54.6824H34.4847V52.7293H37.5801V54.6824ZM41.5159 54.6824H38.752V52.7293H41.5159V54.6824ZM45.5293 54.6824H42.6878V52.7293H45.5293C45.4598 53.0441 45.4222 53.3705 45.4222 53.7058C45.4222 54.0412 45.4599 54.3677 45.5293 54.6824ZM30.0358 51.5574C29.6151 50.7795 28.9736 50.1381 28.1957 49.7174V44.4678H47.805V49.7174C47.0272 50.1381 46.3856 50.7795 45.9649 51.5574H30.0358ZM49.9534 50.3465C51.8057 50.3465 53.3128 51.8535 53.3128 53.7058C53.3128 55.5582 51.8057 57.0652 49.9534 57.0652C48.1011 57.0652 46.594 55.5582 46.594 53.7058C46.594 51.8535 48.1011 50.3465 49.9534 50.3465ZM56.8284 42.71C56.8284 43.0331 56.5655 43.2959 56.2424 43.2959H48.394C48.3929 43.2959 48.3919 43.2957 48.3909 43.2957C48.3899 43.2957 48.3889 43.2959 48.3879 43.2959H23.8647V41.2937H56.8284V42.71ZM26.0473 53.1199C25.7237 53.1199 25.4614 53.3823 25.4614 53.7058C25.4614 54.0294 25.7237 54.2918 26.0473 54.2918C26.3709 54.2918 26.6332 54.0294 26.6332 53.7058C26.6332 53.3823 26.3709 53.1199 26.0473 53.1199ZM49.9534 54.2918C50.277 54.2918 50.5393 54.0294 50.5393 53.7058C50.5393 53.3823 50.277 53.1199 49.9534 53.1199C49.6298 53.1199 49.3675 53.3823 49.3675 53.7058C49.3675 54.0294 49.6298 54.2918 49.9534 54.2918Z" fill="#446489"/>
</g>
<rect x="1" y="1.23584" width="74" height="74" rx="37" stroke="#2BAFE6"/>
<defs>
<clipPath id="clip0_6_557">
<rect width="40" height="40" fill="white" transform="translate(18 18.2358)"/>
</clipPath>
</defs>
</svg>
