<svg width="76" height="76" viewBox="0 0 76 76" fill="none" xmlns="http://www.w3.org/2000/svg">
<rect x="1" y="1.23584" width="74" height="74" rx="37" fill="white"/>
<g clip-path="url(#clip0_6_526)">
<path d="M33.1284 34.1343V36.478H30.7847C30.2031 36.478 29.73 36.9512 29.73 37.5327V38.939C29.73 39.5205 30.2031 39.9937 30.7847 39.9937H33.1284V42.3374C33.1284 42.919 33.6016 43.3921 34.1831 43.3921H35.5894C36.1709 43.3921 36.6441 42.919 36.6441 42.3374V39.9937H38.9878C39.5694 39.9937 40.0425 39.5205 40.0425 38.939V37.5327C40.0425 36.9512 39.5694 36.478 38.9878 36.478H36.6441V34.1343C36.6441 33.5527 36.1709 33.0796 35.5894 33.0796H34.1831C33.6016 33.0796 33.1284 33.5527 33.1284 34.1343ZM34.3003 34.2515H35.4722V36.8296C35.4722 37.2819 35.8402 37.6499 36.2925 37.6499H38.8706V38.8218H36.2925C35.8402 38.8218 35.4722 39.1897 35.4722 39.6421V42.2202H34.3003V39.6421C34.3003 39.1897 33.9324 38.8218 33.48 38.8218H30.9019V37.6499H33.48C33.9324 37.6499 34.3003 37.2819 34.3003 36.8296V34.2515ZM47.3863 18.2358C44.4289 18.2358 41.8663 19.9565 40.6459 22.4492C40.3038 22.2839 39.9662 22.1063 39.6384 21.9159C38.1497 21.0511 36.822 19.9384 35.6924 18.6091C35.4911 18.3719 35.1973 18.2358 34.8863 18.2358C34.5752 18.2358 34.2814 18.3719 34.0804 18.6087C32.9505 19.9383 31.6227 21.051 30.1341 21.9158C27.1355 23.6579 24.1547 24.0032 22.1806 23.9812C21.8956 23.9788 21.6285 24.0872 21.4267 24.2873C21.2249 24.4875 21.1136 24.7544 21.1136 25.039V35.0975C21.1136 35.4212 21.3759 35.6834 21.6995 35.6834C22.0231 35.6834 22.2855 35.4212 22.2855 35.0975V25.1537C24.4017 25.1616 27.5524 24.771 30.7228 22.9292C32.2887 22.0194 33.6888 20.8558 34.8863 19.4693C36.0836 20.8558 37.4837 22.0194 39.0498 22.9292C39.4281 23.1489 39.8181 23.3536 40.2138 23.5422C40.0192 24.1771 39.9065 24.8475 39.8887 25.5411C39.2631 25.2667 38.6532 24.9581 38.068 24.6175C37.1682 24.0949 36.3084 23.4909 35.5129 22.8229C35.1499 22.5171 34.6227 22.517 34.2602 22.8223C33.464 23.4909 32.6041 24.0948 31.7042 24.6176C29.6767 25.7959 27.4464 26.5669 25.0742 26.9093C24.5977 26.9789 24.2385 27.3943 24.2385 27.8757V42.0702C24.2385 46.5733 26.5005 50.7191 30.2892 53.1605C31.5229 53.955 32.9469 54.5518 34.6424 54.9847C34.8017 55.0254 34.9702 55.0255 35.1295 54.9848C36.8255 54.5518 38.2495 53.955 39.4832 53.1604C43.2719 50.7191 45.5338 46.5733 45.5338 42.0702V33.0042C46.1265 33.1553 46.7471 33.2358 47.3862 33.2358C47.4199 33.2358 47.4534 33.2347 47.487 33.2343V42.0702C47.487 44.623 46.8356 47.1515 45.6035 49.3823C44.393 51.5738 42.6424 53.4481 40.5408 54.8026C38.9563 55.8231 37.1054 56.5589 34.8862 57.0502C32.667 56.559 30.8161 55.8232 29.2318 54.8028C27.1301 53.4481 25.3794 51.5738 24.1689 49.3823C22.9367 47.1515 22.2854 44.623 22.2854 42.0702V37.8319C22.2854 37.5082 22.0231 37.2459 21.6995 37.2459C21.3759 37.2459 21.1135 37.5082 21.1135 37.8319V42.0702C21.1135 44.8207 21.8153 47.5451 23.1431 49.949C24.447 52.3094 26.3328 54.3285 28.5971 55.7879C30.3315 56.9049 32.3482 57.7012 34.7626 58.2226C34.8441 58.2402 34.9284 58.2402 35.0099 58.2226C37.4243 57.7012 39.441 56.9049 41.1756 55.7877C43.4396 54.3284 45.3255 52.3094 46.6293 49.949C47.957 47.5451 48.6589 44.8207 48.6589 42.0702V33.1259C50.6268 32.7858 52.4012 31.6672 53.5601 29.9902C53.7441 29.724 53.6774 29.359 53.4112 29.1751C53.1449 28.9911 52.78 29.0578 52.596 29.324C51.4103 31.0397 49.4628 32.064 47.3863 32.064C43.8969 32.064 41.0581 29.2251 41.0581 25.7358C41.0581 22.2465 43.8969 19.4077 47.3863 19.4077C50.8756 19.4077 53.7144 22.2465 53.7144 25.7358C53.7144 26.1657 53.6709 26.5953 53.585 27.0128C53.5199 27.3297 53.7239 27.6395 54.0409 27.7047C54.3582 27.7698 54.6677 27.5658 54.7328 27.2488C54.8346 26.7539 54.8863 26.2448 54.8863 25.7358C54.8863 21.6003 51.5218 18.2358 47.3863 18.2358ZM44.362 32.5983V42.0702C44.362 46.1732 42.301 49.9508 38.8487 52.1753C37.734 52.8932 36.4377 53.4371 34.8863 53.8374C33.3352 53.4372 32.0386 52.8932 30.924 52.1754C27.4717 49.9508 25.4105 46.1732 25.4105 42.0702V28.044C27.8685 27.6685 30.1832 26.857 32.2931 25.6308C33.2027 25.1023 34.0742 24.4958 34.8863 23.8258C35.6979 24.4954 36.5695 25.1022 37.4791 25.6305C38.273 26.0925 39.109 26.5004 39.9686 26.8462C40.3528 29.4238 42.0532 31.5769 44.362 32.5983ZM27.3863 38.2358C27.3863 42.3714 30.7507 45.7358 34.8863 45.7358C39.0218 45.7358 42.3863 42.3714 42.3863 38.2358C42.3863 34.1003 39.0218 30.7358 34.8863 30.7358C30.7507 30.7358 27.3863 34.1003 27.3863 38.2358ZM41.2144 38.2358C41.2144 41.7251 38.3756 44.564 34.8863 44.564C31.3969 44.564 28.5581 41.7251 28.5581 38.2358C28.5581 34.7465 31.3969 31.9077 34.8863 31.9077C38.3756 31.9077 41.2144 34.7465 41.2144 38.2358ZM51.3231 22.5482C50.6283 21.916 49.5528 21.9519 48.8748 22.6298L46.2056 25.299L45.8744 24.9677C45.1992 24.2856 44.065 24.2911 43.3884 24.9676C42.7031 25.6529 42.703 26.7681 43.3884 27.4535L44.6866 28.7519C45.0919 29.157 45.6313 29.3801 46.2056 29.3801C46.7799 29.3801 47.3194 29.1569 47.7247 28.7516L51.384 25.0922C52.0876 24.3946 52.0494 23.2091 51.3231 22.5482ZM50.5555 24.2636L46.8962 27.9229C46.7122 28.1069 46.467 28.2082 46.2056 28.2082C45.9443 28.2082 45.6991 28.1069 45.5152 27.9232L44.2171 26.625C43.9887 26.3965 43.9887 26.0247 44.2171 25.7964C44.4427 25.5708 44.8213 25.5697 45.0458 25.7963L45.6256 26.3762C45.7805 26.5312 45.9865 26.6165 46.2056 26.6165C46.4248 26.6165 46.6307 26.5312 46.7857 26.3763L49.7035 23.4586C49.9343 23.2276 50.3072 23.2081 50.5345 23.4149C50.7781 23.6366 50.7905 24.0314 50.5555 24.2636Z" fill="#446489"/>
</g>
<rect x="1" y="1.23584" width="74" height="74" rx="37" stroke="#2BAFE6"/>
<defs>
<clipPath id="clip0_6_526">
<rect width="40" height="40" fill="white" transform="translate(18 18.2358)"/>
</clipPath>
</defs>
</svg>
