<svg width="76" height="76" viewBox="0 0 76 76" fill="none" xmlns="http://www.w3.org/2000/svg">
<rect x="1" y="1.23584" width="74" height="74" rx="37" fill="white"/>
<g clip-path="url(#clip0_6_496)">
<path d="M58.374 23.8298L57.6984 23.1544C57.4582 22.914 57.0686 22.9141 56.8284 23.1544C56.5881 23.3946 56.5881 23.7842 56.8284 24.0244L57.5039 24.6999C57.8591 25.0551 57.8591 25.633 57.5039 25.9882C57.1487 26.3435 56.5708 26.3434 56.2155 25.9882L50.248 20.0207C49.8928 19.6655 49.8928 19.0875 50.248 18.7323C50.6033 18.3771 51.1812 18.3771 51.5364 18.7323L54.815 22.0109C55.0553 22.2512 55.4449 22.2512 55.6851 22.0109C55.9254 21.7706 55.9254 21.381 55.6851 21.1409L52.4065 17.8623C51.5715 17.0273 50.213 17.0274 49.3779 17.8623C48.543 18.6973 48.543 20.0559 49.3779 20.8909L49.7681 21.2811L46.5752 24.474L44.2804 22.1792C43.4581 21.3489 42.0758 21.3554 41.2519 22.1792C40.4271 23.0041 40.4195 24.3831 41.2519 25.2078L41.6422 25.598L36.5408 30.6994C36.3005 30.9397 36.3005 31.3293 36.5408 31.5695C36.781 31.8098 37.1706 31.8098 37.4108 31.5695L42.5122 26.4681L49.7681 33.724L47.7185 35.7736L47.1736 35.2286C46.9333 34.9883 46.5437 34.9883 46.3035 35.2286C46.0633 35.4688 46.0633 35.8584 46.3035 36.0986L46.8485 36.6436L45.0678 38.4243L44.5228 37.8793C44.2826 37.639 43.893 37.639 43.6528 37.8793C43.4125 38.1196 43.4125 38.5092 43.6528 38.7494L44.1977 39.2944L42.417 41.0751L41.872 40.5301C41.6317 40.2898 41.2422 40.2898 41.002 40.5301C40.7617 40.7703 40.7617 41.1599 41.002 41.4001L41.547 41.9451L39.7663 43.7258L39.2214 43.1808C38.9811 42.9405 38.5915 42.9405 38.3513 43.1808C38.111 43.4211 38.111 43.8106 38.3513 44.0508L38.8963 44.5959L37.1156 46.3766L36.5705 45.8315C36.3303 45.5913 35.9407 45.5913 35.7005 45.8315C35.4602 46.0718 35.4602 46.4614 35.7005 46.7016L36.2455 47.2466L34.3499 49.1422C34.265 49.2271 34.1268 49.2271 34.0419 49.1422L27.094 42.1943C27.0091 42.1094 27.0091 41.9712 27.094 41.8863L35.3739 33.6064C35.6142 33.3661 35.6142 32.9765 35.3739 32.7363C35.1337 32.496 34.7441 32.496 34.5039 32.7363L26.2239 41.0164C25.6592 41.5811 25.6592 42.4999 26.2239 43.0646L27.1042 43.945L25.9699 45.0794C25.4052 45.6441 25.4052 46.5629 25.9699 47.1276L27.1042 48.2619L17.1805 58.1858C16.9402 58.4261 16.9402 58.8157 17.1805 59.0558C17.4207 59.2961 17.8103 59.2961 18.0505 59.0558L27.9743 49.132L29.1086 50.2664C29.6734 50.8311 30.5921 50.8311 31.1568 50.2664L32.2912 49.132L33.1716 50.0124C33.7363 50.5771 34.6551 50.5771 35.2198 50.0124L50.6382 34.5941L51.0284 34.9844C51.8433 35.8072 53.2328 35.8086 54.057 34.9844C54.8811 34.1603 54.8789 32.7698 54.057 31.9558L51.7622 29.661L54.9551 26.4681L55.3454 26.8584C56.1804 27.6933 57.539 27.6934 58.374 26.8584C59.2089 26.0234 59.2089 24.6648 58.374 23.8298ZM30.2868 49.3964C30.2018 49.4813 30.0636 49.4813 29.9788 49.3964L26.8399 46.2575C26.755 46.1725 26.755 46.0344 26.8399 45.9495L27.9743 44.8151L31.4212 48.262L30.2868 49.3964ZM53.1869 32.8259C53.5377 33.1732 53.5374 33.7638 53.1869 34.1143C52.8363 34.4649 52.2459 34.4652 51.8986 34.1143L42.122 24.3377C41.7698 23.989 41.7715 23.3998 42.122 23.0494C42.4724 22.6989 43.0612 22.6968 43.4104 23.0494L53.1869 32.8259ZM50.8922 28.791L47.4454 25.3442L50.6382 22.1513L54.085 25.5981L50.8922 28.791Z" fill="#446489"/>
</g>
<rect x="1" y="1.23584" width="74" height="74" rx="37" stroke="#2BAFE6"/>
<defs>
<clipPath id="clip0_6_496">
<rect width="42" height="42" fill="white" transform="translate(17 17.2358)"/>
</clipPath>
</defs>
</svg>
