<svg width="76" height="76" viewBox="0 0 76 76" fill="none" xmlns="http://www.w3.org/2000/svg">
<rect x="1" y="1.23584" width="74" height="74" rx="37" fill="white"/>
<g clip-path="url(#clip0_6_530)">
<path d="M45.5968 24.7202H36.4667C36.1301 24.7202 35.8573 24.9825 35.8573 25.3062C35.8573 25.6298 36.1301 25.8921 36.4667 25.8921H45.5968C46.3808 25.8921 47.0187 25.2787 47.0187 24.5249V23.1187C47.0187 22.3648 46.3808 21.7515 45.5968 21.7515H30.4031C29.6191 21.7515 28.9812 22.3648 28.9812 23.1187V24.5249C28.9812 25.2787 29.6191 25.8921 30.4031 25.8921H33.6229C33.9595 25.8921 34.2323 25.6298 34.2323 25.3062C34.2323 24.9825 33.9595 24.7202 33.6229 24.7202H30.4031C30.2911 24.7202 30.2 24.6326 30.2 24.5249V23.1187C30.2 23.0109 30.2911 22.9233 30.4031 22.9233H45.5968C45.7088 22.9233 45.7999 23.0109 45.7999 23.1187V24.5249C45.7999 24.6326 45.7088 24.7202 45.5968 24.7202ZM51.2843 44.0952C51.6209 44.0952 51.8937 43.8329 51.8937 43.5093V21.1655C51.8937 19.5501 50.5269 18.2358 48.8468 18.2358H27.1531C25.473 18.2358 24.1062 19.5501 24.1062 21.1655V55.3062C24.1062 56.9216 25.473 58.2358 27.1531 58.2358H45.0281C45.1514 58.2335 45.33 58.1945 45.4589 58.0643L51.7152 52.0487C51.8063 51.9512 51.8937 51.8279 51.8937 51.6343V46.2437C51.8937 45.92 51.6209 45.6577 51.2843 45.6577C50.9478 45.6577 50.6749 45.92 50.6749 46.2437V51.0483H45.8406C45.0566 51.0483 44.4187 51.6617 44.4187 52.4155V57.064H27.1531C26.145 57.064 25.325 56.2754 25.325 55.3062V21.1655C25.325 20.1963 26.145 19.4077 27.1531 19.4077H48.8468C49.8549 19.4077 50.6749 20.1963 50.6749 21.1655V43.5093C50.6749 43.8329 50.9478 44.0952 51.2843 44.0952ZM45.6375 52.4155C45.6375 52.3078 45.7286 52.2202 45.8406 52.2202H49.8132L45.6375 56.2354V52.4155ZM30 52.2912C29.6634 52.2912 29.3906 52.5535 29.3906 52.8772C29.3906 53.2008 29.6634 53.4631 30 53.4631H38.1906C38.5271 53.4631 38.7999 53.2008 38.7999 52.8772C38.7999 52.5535 38.5271 52.2912 38.1906 52.2912H30ZM30 46.4319H45.1906C45.5271 46.4319 45.7999 46.1696 45.7999 45.8459C45.7999 45.5222 45.5271 45.26 45.1906 45.26H30C29.6634 45.26 29.3906 45.5222 29.3906 45.8459C29.3906 46.1696 29.6634 46.4319 30 46.4319ZM47.6281 42.9162H30C29.6634 42.9162 29.3906 43.1785 29.3906 43.5022C29.3906 43.8258 29.6634 44.0881 30 44.0881H47.6281C47.9646 44.0881 48.2374 43.8258 48.2374 43.5022C48.2374 43.1785 47.9646 42.9162 47.6281 42.9162ZM41.2374 50.5334C41.2374 50.2097 40.9646 49.9475 40.6281 49.9475H30C29.6634 49.9475 29.3906 50.2097 29.3906 50.5334C29.3906 50.8571 29.6634 51.1194 30 51.1194H40.6281C40.9646 51.1194 41.2374 50.8571 41.2374 50.5334Z" fill="#446489"/>
<path d="M36.4326 30.7661V32.856H34.3428C33.8242 32.856 33.4023 33.2778 33.4023 33.7964V35.0503C33.4023 35.5689 33.8242 35.9907 34.3428 35.9907H36.4326V38.0806C36.4326 38.5991 36.8545 39.021 37.373 39.021H38.627C39.1455 39.021 39.5674 38.5991 39.5674 38.0806V35.9907H41.6572C42.1758 35.9907 42.5977 35.5689 42.5977 35.0503V33.7964C42.5977 33.2778 42.1758 32.856 41.6572 32.856H39.5674V30.7661C39.5674 30.2476 39.1455 29.8257 38.627 29.8257H37.373C36.8545 29.8257 36.4326 30.2476 36.4326 30.7661ZM37.4775 30.8706H38.5225V33.1694C38.5225 33.5728 38.8506 33.9009 39.2539 33.9009H41.5527V34.9458H39.2539C38.8506 34.9458 38.5225 35.2739 38.5225 35.6772V37.9761H37.4775V35.6772C37.4775 35.2739 37.1494 34.9458 36.7461 34.9458H34.4473V33.9009H36.7461C37.1494 33.9009 37.4775 33.5728 37.4775 33.1694V30.8706ZM31.3125 34.4233C31.3125 38.1109 34.3125 41.1108 38 41.1108C41.6875 41.1108 44.6875 38.1109 44.6875 34.4233C44.6875 30.7358 41.6875 27.7358 38 27.7358C34.3125 27.7358 31.3125 30.7358 31.3125 34.4233ZM43.6426 34.4233C43.6426 37.5346 41.1114 40.0659 38 40.0659C34.8886 40.0659 32.3574 37.5346 32.3574 34.4233C32.3574 31.3121 34.8886 28.7808 38 28.7808C41.1114 28.7808 43.6426 31.3121 43.6426 34.4233Z" fill="#446489"/>
</g>
<rect x="1" y="1.23584" width="74" height="74" rx="37" stroke="#2BAFE6"/>
<defs>
<clipPath id="clip0_6_530">
<rect width="41.6" height="40" fill="white" transform="translate(17.2 18.2358)"/>
</clipPath>
</defs>
</svg>
