<svg width="76" height="76" viewBox="0 0 76 76" fill="none" xmlns="http://www.w3.org/2000/svg">
<rect x="1" y="1.23584" width="74" height="74" rx="37" fill="white"/>
<path d="M38.0237 19.791C38.0237 19.791 40.8606 34.4321 37.6309 42.0525C35.1213 47.94 40.1623 51.006 41.8208 52.1168C43.4792 53.2277 46.4252 54.6496 47.9746 54.3163C49.524 54.0053 50.9642 54.3163 51.3134 55.7827C51.6625 57.249 47.3636 58.5153 44.9195 58.1821C42.4754 57.871 39.9222 56.3603 37.9364 55.9826C35.9506 55.5827 32.83 56.8491 31.0406 57.049C29.2512 57.249 26.0869 56.1825 27.9855 52.0724C29.884 47.9622 28.9238 41.1416 28.4219 39.4753C27.92 37.809 21.2424 25.8563 26.9817 18.2358" stroke="#446489" stroke-miterlimit="10" stroke-linecap="round" stroke-linejoin="round"/>
<path d="M31.2371 19.3691C31.2371 19.3691 33.7248 25.5233 32.7864 41.5862" stroke="#446489" stroke-miterlimit="10" stroke-linecap="round" stroke-linejoin="round"/>
<path d="M28.553 29.2112C28.553 29.2112 30.2115 26.1231 32.2409 23.7236" stroke="#446489" stroke-miterlimit="10" stroke-linecap="round" stroke-linejoin="round"/>
<path d="M35.6454 34.5875C35.6454 34.5875 35.0126 31.9881 32.874 29.7664" stroke="#446489" stroke-miterlimit="10" stroke-linecap="round" stroke-linejoin="round"/>
<rect x="1" y="1.23584" width="74" height="74" rx="37" stroke="#2BAFE6"/>
</svg>
