<svg width="76" height="76" viewBox="0 0 76 76" fill="none" xmlns="http://www.w3.org/2000/svg">
<rect x="1" y="1.23584" width="74" height="74" rx="37" fill="white"/>
<g clip-path="url(#clip0_6_500)">
<path d="M59.1689 40.2951C59.5217 40.2951 59.8078 40.0196 59.8078 39.6798V20.312C59.8078 18.6158 58.3748 17.2358 56.6133 17.2358H19.3869C17.6254 17.2358 16.1924 18.6158 16.1924 20.312V48.1206C16.1924 49.8168 17.6254 51.1968 19.3869 51.1968H22.9962V53.7178H17.6831C16.8612 53.7178 16.1924 54.3619 16.1924 55.1534V57.8003C16.1924 58.5918 16.8612 59.2358 17.6831 59.2358H58.317C59.139 59.2358 59.8078 58.5918 59.8078 57.8003V55.1534C59.8078 54.3619 59.139 53.7178 58.317 53.7178H54.2817V51.1968H56.6133C58.3748 51.1968 59.8078 49.8168 59.8078 48.1206V42.5509C59.8078 42.2112 59.5217 41.9357 59.1689 41.9357C58.816 41.9357 58.53 42.2112 58.53 42.5509V48.1206C58.53 49.1384 57.6702 49.9663 56.6133 49.9663H19.3869C18.33 49.9663 17.4702 49.1384 17.4702 48.1206V20.312C17.4702 19.2943 18.33 18.4663 19.3869 18.4663H56.6133C57.6702 18.4663 58.53 19.2943 58.53 20.312V39.6798C58.53 40.0196 58.816 40.2951 59.1689 40.2951ZM58.317 54.9483C58.4344 54.9483 58.53 55.0404 58.53 55.1534V57.8003C58.53 57.9133 58.4344 58.0054 58.317 58.0054H17.6831C17.5658 58.0054 17.4702 57.9133 17.4702 57.8003V55.1534C17.4702 55.0404 17.5658 54.9483 17.6831 54.9483H58.317ZM49.8299 51.1968H53.0039V53.7178H49.8299V51.1968ZM28.7258 51.1968H48.5521V53.7178H28.7258V51.1968ZM24.274 51.1968H27.448V53.7178H24.274V51.1968ZM43.7927 44.7163C43.1586 44.7163 42.6427 45.2131 42.6427 45.8237V47.6284C42.6427 48.2391 43.1586 48.7358 43.7927 48.7358H48.2224C48.8566 48.7358 49.3724 48.2391 49.3724 47.6284V45.8237C49.3724 45.2131 48.8566 44.7163 48.2224 44.7163H43.7927ZM48.0947 47.5054H43.9205V45.9468H48.0947V47.5054ZM23.2963 24.0767C22.3446 24.9931 22.3446 26.4844 23.2963 27.4008L25.9892 29.994C26.3642 30.3552 26.9746 30.3552 27.3497 29.994L30.0426 27.4008C30.9943 26.4844 30.9943 24.9931 30.0426 24.0767C29.1168 23.1851 27.626 23.1607 26.6694 24.0039C25.7128 23.1608 24.2221 23.1849 23.2963 24.0767ZM25.8448 24.9468C26.075 25.1684 26.3282 25.4086 26.6694 25.4086C27.0628 25.4086 27.2442 25.1873 27.494 24.9467C27.9476 24.51 28.6855 24.51 29.1391 24.9467C29.5926 25.3834 29.5926 26.094 29.1391 26.5307L26.6695 28.9088L24.2 26.5307C23.7464 26.094 23.7464 25.3834 24.2 24.9467C24.6533 24.51 25.3912 24.51 25.8448 24.9468ZM20.0258 46.8901C20.0258 47.9079 20.8856 48.7358 21.9425 48.7358C22.9994 48.7358 23.8591 47.9079 23.8591 46.8901C23.8591 45.8724 22.9994 45.0444 21.9425 45.0444C20.8856 45.0444 20.0258 45.8724 20.0258 46.8901ZM22.5814 46.8901C22.5814 47.2294 22.2948 47.5054 21.9425 47.5054C21.5901 47.5054 21.3036 47.2294 21.3036 46.8901C21.3036 46.5509 21.5901 46.2749 21.9425 46.2749C22.2948 46.2749 22.5814 46.5509 22.5814 46.8901ZM54.0577 45.0444C53.0008 45.0444 52.141 45.8724 52.141 46.8901C52.141 47.9079 53.0008 48.7358 54.0577 48.7358C55.1146 48.7358 55.9744 47.9079 55.9744 46.8901C55.9744 45.8724 55.1146 45.0444 54.0577 45.0444ZM54.0577 47.5054C53.7054 47.5054 53.4188 47.2294 53.4188 46.8901C53.4188 46.5509 53.7054 46.2749 54.0577 46.2749C54.41 46.2749 54.6966 46.5509 54.6966 46.8901C54.6966 47.2294 54.41 47.5054 54.0577 47.5054ZM35.7852 44.7163C35.1511 44.7163 34.6352 45.2131 34.6352 45.8237V47.6284C34.6352 48.2391 35.1511 48.7358 35.7852 48.7358H40.2149C40.849 48.7358 41.3649 48.2391 41.3649 47.6284V45.8237C41.3649 45.2131 40.849 44.7163 40.2149 44.7163H35.7852ZM40.0871 47.5054H35.913V45.9468H40.0871V47.5054ZM55.9744 21.8706C55.9744 21.3504 55.5349 20.9272 54.9947 20.9272H27.323C26.9702 20.9272 26.6841 21.2027 26.6841 21.5425C26.6841 21.8823 26.9702 22.1577 27.323 22.1577H54.6966V35.8733H53.1912L51.7122 32.742C51.5564 32.4123 51.226 32.2006 50.85 32.1897C50.4755 32.1792 50.131 32.3709 49.9548 32.6909L48.2034 35.8733H47.1195C46.7445 35.8733 46.4081 36.0743 46.2418 36.3978L44.9072 38.991L42.0384 28.7388C41.9261 28.3371 41.5604 28.0569 41.1287 28.0416C40.6978 28.0274 40.3109 28.2797 40.1681 28.6722L37.547 35.8733H35.4839C35.1117 35.8733 34.7765 36.0722 34.6091 36.3922L33.0967 39.2826L29.7839 32.0745C29.6205 31.7185 29.2555 31.4993 28.8499 31.5135C28.4459 31.5288 28.0983 31.7758 27.964 32.1431L26.6011 35.8733H21.3036V22.1577H24.7674C25.1202 22.1577 25.4063 21.8823 25.4063 21.5425C25.4063 21.2027 25.1202 20.9272 24.7674 20.9272H21.0054C20.4652 20.9272 20.0258 21.3504 20.0258 21.8706V42.5425C20.0258 43.0626 20.4652 43.4858 21.0054 43.4858H54.9947C55.5349 43.4858 55.9744 43.0626 55.9744 42.5425V21.8706ZM54.6966 42.2554H21.3036V37.1037H26.8123C27.2273 37.1037 27.5987 36.8505 27.7364 36.4735L28.9198 33.2346L32.1834 40.3358C32.3383 40.6727 32.6721 40.8878 33.0547 40.8971C33.0633 40.8973 33.0717 40.8974 33.0802 40.8974C33.4526 40.8974 33.7857 40.7003 33.9542 40.3785L35.6677 37.1037H37.7585C38.174 37.1037 38.5455 36.85 38.683 36.4724L41.0554 29.9546L43.8786 40.044C43.9855 40.4262 44.319 40.6984 44.7282 40.7373C45.137 40.7765 45.5196 40.5723 45.7023 40.2174L47.3046 37.1037H48.3829C48.7466 37.1037 49.0783 36.9115 49.2485 36.6021L50.8001 33.7828L52.1075 36.5508C52.2661 36.8867 52.6162 37.1037 52.9993 37.1037H54.6966V42.2554ZM27.7777 44.7163C27.1436 44.7163 26.6277 45.2131 26.6277 45.8237V47.6284C26.6277 48.2391 27.1436 48.7358 27.7777 48.7358H32.2074C32.8415 48.7358 33.3574 48.2391 33.3574 47.6284V45.8237C33.3574 45.2131 32.8415 44.7163 32.2074 44.7163H27.7777ZM32.0796 47.5054H27.9055V45.9468H32.0796V47.5054Z" fill="#446489"/>
</g>
<rect x="1" y="1.23584" width="74" height="74" rx="37" stroke="#2BAFE6"/>
<defs>
<clipPath id="clip0_6_500">
<rect width="43.6154" height="42" fill="white" transform="translate(16.1924 17.2358)"/>
</clipPath>
</defs>
</svg>
