<svg width="76" height="76" viewBox="0 0 76 76" fill="none" xmlns="http://www.w3.org/2000/svg">
<rect x="1" y="1.23584" width="74" height="74" rx="37" fill="white"/>
<g clip-path="url(#clip0_6_522)">
<path d="M51.5996 42.4653V34.0066C51.5996 33.0373 50.8111 32.2488 49.8418 32.2488C48.8725 32.2488 48.084 33.0373 48.084 34.0066V42.4653C48.084 43.4345 48.8725 44.2231 49.8418 44.2231C50.8111 44.2231 51.5996 43.4345 51.5996 42.4653ZM49.2559 42.4653V34.0066C49.2559 33.6835 49.5187 33.4207 49.8418 33.4207C50.1649 33.4207 50.4277 33.6835 50.4277 34.0066V42.4653C50.4277 42.7884 50.1649 43.0512 49.8418 43.0512C49.5187 43.0512 49.2559 42.7884 49.2559 42.4653ZM54.6725 27.5302C54.6725 26.7718 54.0613 26.1548 53.3102 26.1548H49.0952C48.7716 26.1548 48.5093 26.4172 48.5093 26.7408C48.5093 27.0644 48.7716 27.3267 49.0952 27.3267H53.3102C53.4152 27.3267 53.5006 27.418 53.5006 27.5302V31.8159C53.5006 32.1395 53.763 32.4019 54.0866 32.4019C54.4102 32.4019 54.6725 32.1395 54.6725 31.8159V27.5302ZM57.4141 41.3033C57.7377 41.3033 58 41.0411 58 40.7174V25.5688C58 23.3801 56.2445 21.5994 54.0866 21.5994H21.9134C19.7555 21.5994 18 23.3801 18 25.5688V50.903C18 53.0918 19.7555 54.8725 21.9134 54.8725H54.0865C56.2444 54.8725 57.9999 53.0918 57.9999 50.903V43.4518C57.9999 43.1281 57.7376 42.8658 57.414 42.8658C57.0904 42.8658 56.828 43.1281 56.828 43.4518V50.903C56.828 52.4456 55.5982 53.7006 54.0865 53.7006H21.9134C20.4017 53.7006 19.1719 52.4457 19.1719 50.903V25.5688C19.1719 24.0262 20.4017 22.7712 21.9134 22.7712H54.0865C55.5982 22.7712 56.828 24.0262 56.828 25.5688V40.7174C56.8281 41.0411 57.0905 41.3033 57.4141 41.3033ZM49.0952 50.3172H53.3102C54.0614 50.3172 54.6725 49.7002 54.6725 48.9418V44.6561C54.6725 44.3324 54.4102 44.0701 54.0866 44.0701C53.763 44.0701 53.5006 44.3324 53.5006 44.6561V48.9418C53.5006 49.0541 53.4152 49.1453 53.3102 49.1453H49.0952C48.7716 49.1453 48.5093 49.4076 48.5093 49.7312C48.5093 50.0549 48.7716 50.3172 49.0952 50.3172ZM21.9134 32.4018C22.237 32.4018 22.4994 32.1394 22.4994 31.8158V27.5301C22.4994 27.4179 22.5848 27.3266 22.6898 27.3266H26.9048C27.2284 27.3266 27.4907 27.0643 27.4907 26.7407C27.4907 26.4171 27.2284 26.1548 26.9048 26.1548H21.9134C21.5898 26.1548 21.3275 26.4171 21.3275 26.7407V31.8158C21.3275 32.1395 21.5898 32.4018 21.9134 32.4018ZM45.1543 35.3108C46.1365 35.315 46.9563 34.4511 46.9102 33.4688C46.866 32.5303 46.0802 31.7952 45.1213 31.7952H39.7578V30.0929H42.4443C43.4032 30.0929 44.1891 29.3577 44.2332 28.4193C44.2799 27.4271 43.4627 26.573 42.4773 26.5773H39.7578V25.759C39.7578 24.8001 39.0227 24.0142 38.0842 23.9701C37.0896 23.9233 36.2383 24.7317 36.2422 25.7259V26.5773H33.5557C32.5968 26.5773 31.8109 27.3125 31.7668 28.2509C31.7205 29.233 32.5325 30.0979 33.5227 30.093H36.2422V31.7953H34.8797C34.5561 31.7953 34.2938 32.0576 34.2938 32.3812C34.2938 32.7048 34.5561 32.9672 34.8797 32.9672H36.5156C37.011 32.9672 37.4141 32.5641 37.4141 32.0687V29.8195C37.4141 29.3241 37.011 28.9211 36.5156 28.9211H33.5226C33.1921 28.9227 32.9218 28.636 32.9373 28.306C32.9518 27.999 33.2292 27.7492 33.5557 27.7492H36.5156C37.011 27.7492 37.4141 27.3462 37.4141 26.8508V25.7258C37.4123 25.3958 37.6985 25.1251 38.0291 25.1406C38.3362 25.1551 38.5859 25.4325 38.5859 25.759V26.8507C38.5859 27.3461 38.989 27.7491 39.4844 27.7491H42.4774C42.8069 27.7471 43.0782 28.0338 43.0627 28.3642C43.0482 28.6712 42.7708 28.921 42.4443 28.921H39.4844C38.989 28.921 38.5859 29.3241 38.5859 29.8194V32.0687C38.5859 32.5641 38.989 32.9671 39.4844 32.9671H45.1212C45.4477 32.9671 45.7251 33.2169 45.7395 33.524C45.755 33.8527 45.4839 34.1407 45.1543 34.139H39.4844C38.989 34.139 38.5859 34.542 38.5859 35.0374V37.2866C38.5859 37.7819 38.989 38.185 39.4844 38.185H42.4774C42.807 38.183 43.0782 38.4697 43.0627 38.8001C43.0482 39.1071 42.7708 39.3569 42.4443 39.3569H39.4844C38.989 39.3569 38.5859 39.7599 38.5859 40.2553V43.1487C38.5859 43.4491 38.7349 43.7282 38.9846 43.8953C39.5976 44.3056 40.1035 43.8653 40.6457 43.6418C41.6125 43.2432 42.7094 43.3534 43.5801 43.9362C44.4695 44.5316 45.0005 45.532 45.0005 46.6122C45.0005 47.9229 44.2266 49.0889 43.0289 49.5826L39.4336 51.0646C39.0004 51.2431 38.5468 51.3337 38.0855 51.3337C37.6241 51.3337 37.1706 51.2431 36.7374 51.0647L33.142 49.5826C31.9443 49.0889 31.1704 47.923 31.1704 46.6122C31.1704 45.5319 31.7014 44.5315 32.5909 43.9361C33.4614 43.3533 34.5584 43.2432 35.5253 43.6418C35.9686 43.8245 36.5505 44.1358 37.0152 43.8248C37.2649 43.6577 37.414 43.3787 37.414 43.0782V40.2552C37.414 39.7598 37.0109 39.3568 36.5155 39.3568H33.5225C33.192 39.3584 32.9217 39.0718 32.9373 38.7417C32.9517 38.4347 33.2291 38.1849 33.5556 38.1849H36.5156C37.011 38.1849 37.4141 37.7819 37.4141 37.2865V35.0373C37.4141 34.5419 37.011 34.1389 36.5156 34.1389H30.8457C30.5152 34.1405 30.2449 33.8538 30.2605 33.5238C30.2749 33.2168 30.5523 32.967 30.8788 32.967H32.1453C32.4689 32.967 32.7312 32.7047 32.7312 32.3811C32.7312 32.0575 32.4689 31.7951 32.1453 31.7951H30.8788C29.9199 31.7951 29.1341 32.5303 29.0899 33.4687C29.0437 34.4508 29.8556 35.3157 30.8458 35.3108H36.2422V37.013H33.5557C32.5968 37.013 31.8109 37.7482 31.7668 38.6866C31.7205 39.6686 32.5325 40.5336 33.5227 40.5287H36.2422V42.6696L35.972 42.5582C34.6429 42.0105 33.1353 42.1615 31.9391 42.9622C30.724 43.7755 29.9986 45.14 29.9986 46.6121C29.9986 48.3994 31.0572 49.9905 32.6955 50.6658L36.2909 52.148C36.8664 52.3852 37.4702 52.5055 38.0855 52.5055C38.7008 52.5055 39.3046 52.3852 39.8802 52.148L43.4754 50.6658C45.1137 49.9905 46.1723 48.3994 46.1723 46.612C46.1723 45.14 45.447 43.7755 44.2319 42.9622C43.0356 42.1615 41.528 42.0104 40.199 42.5583L39.7577 42.7401V40.5286H42.4442C43.4031 40.5286 44.189 39.7935 44.2331 38.855C44.2798 37.8627 43.4627 37.0087 42.4773 37.013H39.7578V35.3107H45.1543V35.3108ZM21.3275 48.9417C21.3275 49.7001 21.9387 50.3171 22.6898 50.3171H26.9048C27.2284 50.3171 27.4907 50.0548 27.4907 49.7312C27.4907 49.4075 27.2284 49.1452 26.9048 49.1452H22.6899C22.5848 49.1452 22.4995 49.0539 22.4995 48.9417V44.656C22.4995 44.3323 22.2371 44.0701 21.9135 44.0701C21.5899 44.0701 21.3276 44.3323 21.3276 44.656V48.9417H21.3275ZM27.916 34.0066C27.916 33.0373 27.1275 32.2488 26.1582 32.2488C25.1889 32.2488 24.4004 33.0373 24.4004 34.0066V42.4653C24.4004 43.4345 25.1889 44.2231 26.1582 44.2231C27.1275 44.2231 27.916 43.4345 27.916 42.4653V34.0066ZM26.7441 42.4653C26.7441 42.7884 26.4813 43.0512 26.1582 43.0512C25.8351 43.0512 25.5723 42.7884 25.5723 42.4653V34.0066C25.5723 33.6835 25.8351 33.4207 26.1582 33.4207C26.4813 33.4207 26.7441 33.6835 26.7441 34.0066V42.4653ZM35.0788 44.7253C34.4652 44.4723 33.7961 44.5396 33.2428 44.9099C32.6705 45.293 32.3424 45.9135 32.3424 46.6121C32.3424 47.4463 32.8316 48.1869 33.5887 48.499L37.1841 49.9812C37.4748 50.1009 37.7802 50.1608 38.0857 50.1608C38.3912 50.1608 38.6965 50.1009 38.9871 49.9811L42.5824 48.4991C43.3395 48.1869 43.8288 47.4463 43.8288 46.6122C43.8288 45.9267 43.4844 45.289 42.9073 44.9068C42.3605 44.5445 41.6813 44.4772 41.09 44.7262L39.0493 45.5675C38.4277 45.8237 37.7433 45.8236 37.1222 45.5676L35.0788 44.7253ZM39.4957 46.6509L41.5389 45.8087C41.5405 45.808 41.5423 45.8073 41.544 45.8066C41.7766 45.7081 42.0374 45.7363 42.2599 45.8837C42.5084 46.0483 42.6568 46.3207 42.6568 46.6122C42.6568 46.9698 42.4523 47.2851 42.1357 47.4156L38.5404 48.8977C38.2473 49.0187 37.9241 49.0187 37.6307 48.8977L34.0353 47.4155C33.7188 47.2851 33.5143 46.9698 33.5143 46.6121C33.5143 46.3067 33.6495 46.048 33.8948 45.8837C34.0304 45.793 34.1788 45.7471 34.3297 45.7471C34.4304 45.7471 34.5323 45.7676 34.6321 45.8087L36.6753 46.6509C37.5844 47.0258 38.586 47.0259 39.4957 46.6509Z" fill="#446489"/>
</g>
<rect x="1" y="1.23584" width="74" height="74" rx="37" stroke="#2BAFE6"/>
<defs>
<clipPath id="clip0_6_522">
<rect width="40" height="40" fill="white" transform="translate(18 18.2358)"/>
</clipPath>
</defs>
</svg>
